<svg xmlns="http://www.w3.org/2000/svg" xmlns:xlink="http://www.w3.org/1999/xlink" enable-background="new 0 0 3000 3000" viewBox="0 0 3000 3000" id="forest-ranger">
  <switch>
    <g>
      <g>
        <g>
          <g>
            <path fill="#6b6b6b" d="M1337.913,205.255c39.032,48.417-11.935,121.794-90.992,185.299
						c-79.057,63.504-156.267,93.088-195.299,44.671c-21.674-26.886-27.864-74.304-15.547-122.035
						c9.865-38.225,48.551-45.473,83.708-73.714c34.993-28.109,60.466-72.593,100.273-74.496
						C1270.182,162.582,1316.158,178.268,1337.913,205.255z"></path>
            <path fill="#bd3512" d="M1337.913,205.255c7.189,6.143,13.205,14.393,16.574,24.001
						c3.336,9.58,4.347,20.162,3.315,30.335c-2.077,20.513-10.387,39.384-20.372,56.326c-10.133,16.978-22.32,32.355-35.498,46.518
						c-13.172,14.207-27.443,27.162-42.281,39.297c-7.49,5.983-15.079,11.845-22.919,17.438
						c-7.912,5.486-15.884,10.922-24.216,15.882c-16.654,9.893-34.142,18.811-52.997,25.05
						c-18.725,6.165-39.127,10.191-59.668,7.277c-10.178-1.4-20.209-4.967-28.678-10.529c-8.498-5.573-15.076-13.293-19.55-21.625
						c7.321,6.081,15.33,10.661,23.632,13.248c8.365,2.473,16.858,3.292,25.32,2.493c16.906-1.412,33.352-7.539,49.091-15.233
						c31.528-15.65,60.709-37.267,88.935-59.956c7.117-5.626,13.989-11.513,20.805-17.434c6.897-5.839,13.466-11.996,20.02-18.133
						c13.063-12.327,25.376-25.29,36.374-39.067c10.92-13.785,20.522-28.547,25.967-44.718c2.769-8.08,4.027-16.529,3.659-25.229
						C1344.902,222.537,1342.314,213.698,1337.913,205.255z"></path>
            <ellipse cx="1216.002" cy="361.983" fill="#404040" rx="284.591" ry="154.299" transform="rotate(-37.426 1216.095 362)"></ellipse>
          </g>
          <g>
            <g opacity=".07">
              <ellipse cx="967.833" cy="2644.649" rx="203.667" ry="350.677" transform="rotate(-84.75 967.896 2644.694)"></ellipse>
              <path d="M1571.266,2698.679c-137.901,63.361-349.333,43.455-472.264-44.614c-122.823-87.991-110.59-210.792,27.311-274.153
							c14.886-6.84,30.667-12.649,47.057-17.567c275.23-62.348,465.488,25.018,509.718,203.176
							C1680.381,2617.105,1642.737,2665.84,1571.266,2698.679z"></path>
            </g>
            <path fill="#1a130f" d="M1319.885,2563.871c0,0-89.298-21.419-107.335-46.688c-6.26-8.77-0.24-46.576-0.24-46.576
						l125.442,65.176L1319.885,2563.871z"></path>
            <path fill="#1a130f" d="M1212.39,2478.027c3.572,44.815,59.879,50.134,134.424,76.683
						c77.573,27.627,88.033,40.115,152.388,40.53c44.329,0.286,101.883-32.512,69.31-56.562
						c-51.482-38.01-75.736-24.236-170.158-60.725c-61.704-23.846-85.265-63.278-120.73-56.565
						C1248.152,2426.967,1209.451,2441.15,1212.39,2478.027z"></path>
            <path fill="#664d34" d="M1214.347,2469.628c3.571,44.815,59.879,50.134,134.424,76.683
						c77.573,27.627,88.033,40.115,152.388,40.53c44.329,0.286,101.883-32.512,69.31-56.562
						c-51.482-38.009-65.068-36.137-159.49-72.627c-61.705-23.846-95.933-51.375-131.399-44.663
						C1250.108,2418.569,1211.408,2432.751,1214.347,2469.628z"></path>
            <path d="M823.845,2549.427c6.709,23.814,69.123,75.977,69.123,75.977l27.111-11.094L823.845,2549.427z"></path>
            <path fill="#1a130f" d="M892.968,2625.403c0,0-62.415-52.162-69.123-75.977c-1.577-5.598,1.224-42.021,1.224-42.021
						l73.065,85.595L892.968,2625.403z"></path>
            <path fill="#1a130f" d="M1114.649,2695.118c25.966-33.334-65.244-112.004-138.321-170.468
						c-73.077-58.463-98.534-106.365-132.312-63.915c-33.779,42.451-28.37,81.282,44.707,139.746
						c32.944,26.356,50.549,71.771,94.183,98.642C1023.592,2724.18,1090.026,2726.729,1114.649,2695.118z"></path>
            <path fill="#73573b" d="M1117.159,2689.113c25.965-33.334-65.244-112.004-138.321-170.468
						c-73.077-58.464-98.534-106.366-132.313-63.915c-33.779,42.451-26.846,79.009,46.231,137.473
						c32.944,26.355,54.451,68.85,98.085,95.722C1031.528,2712.981,1092.536,2720.724,1117.159,2689.113z"></path>
            <path fill="#424242" d="M1221.129,2459.287c-2.672,45.005,143.497,51.363,175.671-5.815
						c0,0,40.702-375.833,39.578-437.939c-1.125-62.148-10.135-553.156-21.695-599.521l-253.2,71.05l75.711,525.268
						L1221.129,2459.287z"></path>
            <path fill="#4d4d4d" d="M835.82,2479.43c12.9,84.982,112.589,125.211,164.011,62.271l270.102-1079.261l-284.427,51.296
						L835.82,2479.43z"></path>
            <g>
              <g>
                <g>
                  <g>
                    <path fill="#fac4a7" d="M1430.135,972.96c-26.33-55.195,88.483-151.513,130.268-65.832
										c30.918,63.397,70.923,139.757,91.876,197.097c7.779,21.288-16.555,141.441-59.91,108.914
										C1548.573,1180.282,1450.39,1015.417,1430.135,972.96z"></path>
                    <path fill="#70a461" d="M1572.035,919.778c16.15,57.92-111.952,110.649-139.009,80.199
										c0,0-113.129-181.455-115.568-220.284c-7.388-117.63,127.886-76.244,163.232-27.177
										C1519.269,806.069,1572.035,919.778,1572.035,919.778z"></path>
                  </g>
                </g>
                <path fill="#facfb5" d="M2086.714,1279.125c-13.429,3.09-35.497-1.18-39.442,2.141
								c-0.423,1.222,16.611,13.088,41.402,19.643c29.395,7.772,55.712,3.949,59.51,7.842c25.856,15.986,0.137,61.181-5.729,66.79
								c-21.821,20.861-85.228,23.482-107.736,18.403c-25.223-5.692-62.527-19.683-72.927-33.497
								c-6.851-9.1-19.033-13.917-27.141-17.363c-32.287-13.722-24.09-96.911-4.574-91.787c17.924,4.561,29.099,3.606,42.58-3.819
								c25.154-13.854,65.253-9.354,71.957-5.612c14.682,8.196,43.875,9.76,55.566,8.296c3.077-0.385,6.01,1.735,6.345,4.827
								C2107.56,1264.524,2103.699,1275.218,2086.714,1279.125z"></path>
                <g>
                  <g>
                    <g>
                      <path fill="#facfb5" d="M1953.377,1258.152c0,0-248.114-149.083-301.917-154.633
											c-25.127-0.309-98.1,68.725-58.329,112.013c11.708,12.743,341.972,127.059,341.972,127.059
											C1978.6,1316.987,1982.723,1294.004,1953.377,1258.152z"></path>
                    </g>
                  </g>
                </g>
              </g>
            </g>
            <g>
              <path fill="#e8b290" d="M1386.205,707.887l-137.699,35.027c0,0-82.032-95.945-64.438-128.025
							c-0.981-32.676-14.966-93.446-14.966-93.446l137.247-83.808L1386.205,707.887z"></path>
              <g>
                <path fill="#688c54" d="M1497.54,778.931c-19.222-60.951-84.992-85.591-129.754-84.412
								c3.69,4.997,8.922,17.052,13.994,33.936l-207.46-10.803c-4.069-42.401-9.657-66.937-16.739-58.177
								c-18.023,22.295-51.08,52.188-72.276,64.344c-62.554,35.876-124.31,51.574-136.603,123.915
								c-13.201,77.685,42.353,300.138,52.766,404.501c14.208,142.397-42.543,190.965-19.114,265.036
								c22.021,69.62,386.926,49.205,436.315-58.037c23.803-51.686-34.842-145.883-27.337-230.456
								C1414.086,972.364,1522.508,858.104,1497.54,778.931z"></path>
                <path fill="#dbdbdb" d="M1338.46,857.602c-7.461,7.929-20.235,10.13-34.582,10.632
								c1.228-47.961-2.557-95.301-11.202-142.038l35.355-2.803C1339.396,771.836,1342.946,811.558,1338.46,857.602z"></path>
              </g>
              <path fill="#70a461" d="M1183.744 614.656c-17.358 52.417 97.344 112.248 126.521 110.201l-78.955 87.198c0 0-82.699-103.677-75.463-149.45C1159.223 641.251 1183.744 614.656 1183.744 614.656zM1370.629 656.382c0 0-2.023 11.939-3.581 19.529-6.844 33.346-56.742 48.744-56.742 48.744l59.947 63.411c0 0 25.498-37.354 23.63-76.927C1393.346 699.788 1370.629 656.382 1370.629 656.382z"></path>
              <g>
                <path fill="#fcc29c" d="M1102.918,479.609c24.95,56.913,66.547,96.969,121.483,126.556
								c48.301,26.013,106.639,49.639,143.914,36.637c83.36-29.078,43.13-53.01,47.751-92.976
								c5.846-50.552,1.204-114.301-24.98-174.031c-19.45-44.368-48.97-94.868-86.706-115
								c-53.23-28.397-133.674-17.918-175.178,8.872C1057.678,315.834,1056.032,372.657,1102.918,479.609z"></path>
              </g>
              <path fill="#523c2f" d="M1298.144,221.614c14.039,4.902,19.097,13.069,25.897,29.57
							c7.385,17.922,21.811,33.503,25.605,52.008c-14.19-10.208-36.642-36.955-47.755-21.294
							c-8.396,11.832-7.736,13.907-26.641,23.766c-34.13,11.73-60.389-8.964-101.015,18.615
							c-35.938,24.396-61.553,86.058-11.753,124.348c0.377,15.248,11.421,33.54,8.555,60.512
							c-11.273-16.271-25.827-25.253-33.994-20.33c-8.946,5.393-6.825,25.403,4.739,44.693
							c7.828,13.059,20.323,20.748,28.838,23.772c-0.055,16.631,19.944,23.501,21.768,29.526
							c-44.412-21.538-71.768-54.815-84.061-85.895c-29.931-75.677-55.157-144.244-29.294-194.156
							C1109.728,247.517,1259.05,207.964,1298.144,221.614z"></path>
            </g>
            <g>
              <path fill="#6e6e6e" d="M1159.94,1480.467c-120.486,0-201.153-46.802-206.485-49.983l31.779-53.489
							c0.456,0.27,46.448,26.908,118.869,36.984c96.309,13.401,191.75-7.261,283.692-61.411l31.568,53.611
							C1323.342,1462.731,1234.094,1480.467,1159.94,1480.467z"></path>
              <g>
                <g>
                  <path fill="#5c5c5c" d="M1419.91,1420.747c-9.774,17.373,19.742,28.441-14.866,45.497
									c-11.536,5.685-38.123-5.065-41.995-7.882c-14.974-10.894-18.724-123.289-12.496-132.857
									c12.935-19.87,36.684-44.777,56.861-37.614c3.297,1.17,36.132,1.888,38.428,7.23
									C1455.792,1318.266,1430.585,1401.773,1419.91,1420.747z"></path>
                </g>
                <g>
                  <path fill="#888" d="M1458.479,1427.822c-13.032,23.163-41.371,48.884-56.861,37.614
									c-14.974-10.894-18.724-123.289-12.495-132.857c12.935-19.87,36.684-44.777,56.861-37.615
									C1463.568,1301.207,1471.617,1404.47,1458.479,1427.822z"></path>
                </g>
                <g>
                  <path fill="#b3b3b3" d="M1414.773,1365.581c-1.06,0-2.137-0.258-3.135-0.798c-2.693-1.463-3.961-4.529-3.26-7.371
									c-1.144-1.239-2.228-3.032-2.249-5.566c-0.04-5.167,3.666-9.898,24.562-26.182c2.863-2.238,7.008-1.729,9.247,1.147
									c2.238,2.872,1.723,7.01-1.147,9.248c-10.85,8.454-15.801,12.911-18.054,15.232c2.678,4.073,1.183,8.348-0.165,10.84
									C1419.378,1364.331,1417.113,1365.581,1414.773,1365.581z"></path>
                  <path fill="#4d4d4d" d="M1424.792,1427.146l7.865-1.345c6.004-1.026,9.877-6.931,8.427-12.848l-13.381-54.603
									c-1.311-5.351-6.535-8.778-11.965-7.85l0,0c-5.43,0.928-9.219,5.896-8.679,11.379l5.516,55.948
									C1413.173,1423.89,1418.788,1428.172,1424.792,1427.146z"></path>
                </g>
              </g>
              <g>
                <g>
                  <path fill="#5c5c5c" d="M1002.581,1459.422c11.359,16.38-16.99,30.167,19.064,43.903
									c12.018,4.579,37.481-8.616,41.072-11.784c13.887-12.25,7.087-124.502-0.01-133.444
									c-14.74-18.57-40.719-41.142-60.136-32.119c-3.173,1.474-35.796,5.267-37.581,10.8
									c-3.729,11.555,1.986,36.301,10.296,60.843C984.22,1424.005,996.154,1450.154,1002.581,1459.422z"></path>
                </g>
                <g>
                  <path fill="#888" d="M964.845,1470.081c15.145,21.84,45.77,44.792,60.136,32.119
									c13.887-12.25,7.087-124.502-0.01-133.444c-14.74-18.57-40.719-41.142-60.136-32.119
									C947.913,1344.501,949.577,1448.063,964.845,1470.081z"></path>
                </g>
                <g>
                  <path fill="#b3b3b3" d="M1001.91,1404.048c-2.124,0-4.208-1.026-5.478-2.922c-1.594-2.378-3.507-6.554-1.22-10.806
									c-2.479-2.112-7.828-6.079-19.365-13.443c-3.068-1.957-3.968-6.034-2.01-9.1c1.959-3.066,6.033-3.971,9.099-2.01
									c22.33,14.252,26.462,18.618,26.908,23.766c0.22,2.569-0.726,4.476-1.712,5.768c0.958,2.762-0.019,5.923-2.559,7.629
									C1004.448,1403.683,1003.172,1404.048,1001.91,1404.048z"></path>
                  <path fill="#4d4d4d" d="M998.321,1466.251l-7.957-0.601c-6.074-0.459-10.483-5.975-9.594-12.001l8.205-55.617
									c0.804-5.45,5.684-9.352,11.177-8.937l0,0c5.493,0.415,9.731,5.006,9.707,10.515l-0.248,56.219
									C1009.583,1461.92,1004.395,1466.71,998.321,1466.251z"></path>
                </g>
              </g>
            </g>
            <g>
              <g>
                <path fill="#bf9e73" d="M2235.962,1146.298c-3.15-4.288-9.663-4.173-14.544,0.224l-322.232,290.239
								c-4.882,4.397-6.309,11.434-3.16,15.723l137.015,186.526c3.15,4.288,9.681,4.199,14.563-0.198l322.233-290.239
								c4.882-4.397,6.291-11.46,3.141-15.748L2235.962,1146.298z"></path>
              </g>
              <path fill="#967d5a" d="M2241.732,1150.524c0.52,0.412,0.993,0.9,1.407,1.465l137.015,186.526
							c3.15,4.288,1.741,11.351-3.141,15.748l-322.232,290.239c-4.239,3.817-9.72,4.387-13.153,1.666l-7.178-5.691
							c3.433,2.722,8.915,2.151,13.153-1.666l322.233-290.238c4.882-4.397,6.29-11.46,3.14-15.749l-137.015-186.526
							c-0.415-0.564-0.888-1.053-1.407-1.464L2241.732,1150.524z"></path>
            </g>
            <g>
              <g>
                <path fill="#facfb5" d="M1364.279,1397.334c-12.273,2.931-32.511-0.808-36.097,2.262
								c-0.379,1.121,2.639,6.93,25.388,12.741c26.973,6.89,29.371,4.778,32.878,8.313c23.793,14.437-24.957,103.544-59.281,96.263
								c-23.16-4.912-67.034-31.61-76.659-44.176c-6.341-8.278-39.033-32.628-46.482-35.721c-29.665-12.315-1.28-68.5,16.628-63.959
								c16.446,4.038,26.671,3.078,38.958-3.822c22.927-12.876,59.677-9.063,65.843-5.689c13.505,7.391,40.246,8.599,50.939,7.169
								c2.814-0.376,5.516,1.543,5.846,4.37C1383.256,1383.807,1379.801,1393.627,1364.279,1397.334z"></path>
              </g>
            </g>
            <path fill="#ccc" d="M1026.262,1245.781c8.024-35.409,10.156-74.988,22.547-128.885
						c10.893-0.902,17.821-2.748,17.985-5.529c0,0,40.932-183.466,29.71-220.709c-33.998-112.825-136.438-122.72-159.802-43.662
						c-18.719,63.341-38.056,237.775-38.056,237.775c1.247,2.697,3.532,5.205,6.54,7.559
						c-13.827,95.325-33.098,207.191-25.09,232.221c-0.078,2.721,0.604,5.223,2.215,7.384
						c51.549,69.164,313.648,104.947,348.878,109.146l9.279-66.06C1202.455,1357.091,1058.4,1248.478,1026.262,1245.781z"></path>
            <g>
              <g>
                <g>
                  <path fill="#cf9a89" d="M1464.489,1603.57c23.671,1.802,34.682-13.853,24.594-34.964
									c-10.088-21.112-37.455-39.687-61.126-41.489c-23.671-1.802-34.682,13.852-24.594,34.964
									S1440.818,1601.768,1464.489,1603.57z M1461.29,1596.874c-19.525-1.486-42.099-16.808-50.42-34.222
									c-8.321-17.414,0.761-30.327,20.286-28.841c19.525,1.486,42.099,16.808,50.42,34.222
									C1489.897,1585.448,1480.815,1598.36,1461.29,1596.874L1461.29,1596.874z"></path>
                </g>
                <path fill="#805f54" d="M1489.661,1594.365l9.819-14.624c4.24-6.316,4.382-15.378-0.579-25.76
								c-10.088-21.112-37.455-39.687-61.126-41.489c-12.03-0.916-20.79,2.677-25.173,9.204l-9.819,14.624
								c4.383-6.527,13.143-10.12,25.173-9.204c23.671,1.802,51.038,20.377,61.126,41.489
								C1494.044,1578.988,1493.902,1588.05,1489.661,1594.365z"></path>
                <path fill="#73564c" d="M1465.519,1613.907l16.534-24.625c3.498-5.209,3.615-12.685-0.478-21.248
								c-8.321-17.414-30.895-32.736-50.42-34.222c-9.923-0.755-17.149,2.209-20.764,7.592l-16.534,24.625
								c3.615-5.384,10.841-8.347,20.764-7.592c19.525,1.486,42.099,16.808,50.42,34.222
								C1469.133,1601.223,1469.017,1608.698,1465.519,1613.907z"></path>
                <path fill="#5c5c5c" d="M1481.078,1568.775c1.314,2.75,2.194,5.388,2.668,7.875
								c-3.886,5.788-11.66,17.366-15.547,23.155c-0.473-2.487-1.354-5.125-2.668-7.875c-2.249-4.707-5.539-9.261-9.53-13.43
								c3.888-5.79,11.661-17.367,15.547-23.155C1475.538,1559.514,1478.829,1564.068,1481.078,1568.775z"></path>
                <g>
                  <path fill="#cf9a89" d="M1429.27,1670.93c29.064,2.212,42.584-17.009,30.197-42.931
									c-12.387-25.922-45.989-48.729-75.053-50.942c-29.064-2.212-42.584,17.009-30.197,42.931
									C1366.603,1645.91,1400.205,1668.718,1429.27,1670.93z M1426.221,1664.55c-25.114-1.911-54.149-21.619-64.852-44.017
									c-10.703-22.399,0.979-39.007,26.093-37.095c25.114,1.911,54.149,21.619,64.852,44.017
									C1463.016,1649.853,1451.335,1666.461,1426.221,1664.55L1426.221,1664.55z"></path>
                </g>
                <path fill="#805f54" d="M1460.168,1659.643c7.625-11.336,15.25-22.671,22.875-34.007
								c5.219-7.759,5.397-18.898-0.701-31.661c-12.393-25.936-46.014-48.755-75.093-50.969
								c-14.788-1.125-25.554,3.295-30.934,11.322l0,0c-7.606,11.348-15.212,22.696-22.819,34.044
								c5.378-8.023,16.138-12.441,30.918-11.316c29.064,2.212,62.667,25.02,75.053,50.942
								C1465.562,1640.755,1465.384,1651.888,1460.168,1659.643z"></path>
                <path fill="#73564c" d="M1214.64,1760.11l-9.279,13.819c-6.793,10.117-7.02,24.635,0.928,41.267
								c16.161,33.821,60.002,63.578,97.923,66.464l9.279-13.819c-37.92-2.886-81.762-32.643-97.923-66.464
								C1207.62,1784.745,1207.847,1770.228,1214.64,1760.11z"></path>
                <path fill="#73564c" d="m1344.537 1866.916 9.279-13.819c-7.021 10.456-21.054 16.212-40.326 14.745l-9.279 13.819C1323.483 1883.127 1337.517 1877.371 1344.537 1866.916zM1370.806 1823.18c27.801-56.874 55.6-113.741 83.402-170.615 3.191-6.528 2.814-15.259-1.893-25.111-10.703-22.398-39.738-42.106-64.852-44.017-11.458-.872-20.12 2.111-25.136 7.74l0 0c-42.139 47.292-84.279 94.582-126.419 141.874 7.364-8.265 20.082-12.644 36.904-11.364 36.871 2.806 79.5 31.74 95.214 64.626C1374.937 1800.776 1375.491 1813.595 1370.806 1823.18z"></path>
                <g>
                  <path fill="#5c5c5c" d="M1350.4,1760.331c7.525,7.863,13.73,16.452,17.972,25.329
									c2.479,5.187,4.138,10.162,5.031,14.851c20.476-40.518,61.432-121.555,81.909-162.073c-0.61-3.206-1.745-6.607-3.439-10.153
									c-2.9-6.069-7.143-11.941-12.287-17.317C1417.29,1648.308,1372.695,1722.991,1350.4,1760.331L1350.4,1760.331z"></path>
                </g>
                <g>
                  <defs>
                    <ellipse id="a" cx="1284.228" cy="1806.604" rx="48.413" ry="83.691" transform="rotate(-56.317 1284.155 1806.604)"></ellipse>
                  </defs>
                  <use xlink:href="#a" fill="#3c83c7" overflow="visible"></use>
                  <clipPath id="b">
                    <use xlink:href="#a" overflow="visible"></use>
                  </clipPath>
                  <g clip-path="url(#b)">
                    <polygon fill="#4d4d4d" points="1194.135 1859.492 1237.696 1895.834 1340.409 1773.335 1296.847 1736.993"></polygon>
                    <polygon fill="#4d4d4d" points="1139.861 1809.711 1183.423 1846.053 1286.135 1723.554 1242.574 1687.212"></polygon>
                  </g>
                </g>
                <g>
                  <path fill="#cf9a89" d="M1306.322,1886.077c40.655,3.094,59.567-23.792,42.24-60.052s-64.33-68.163-104.985-71.257
									c-40.655-3.094-59.567,23.792-42.24,60.052C1218.663,1851.08,1265.667,1882.983,1306.322,1886.077z M1304.211,1881.661
									c-37.92-2.886-81.762-32.643-97.923-66.464c-16.161-33.821,1.478-58.898,39.399-56.012
									c37.92,2.886,81.762,32.643,97.923,66.464C1359.771,1859.469,1342.131,1884.547,1304.211,1881.661L1304.211,1881.661z"></path>
                </g>
                <path fill="#805f54" d="M1349.538,1870.296c8.786-13.054,17.572-26.108,26.358-39.162
								c7.306-10.854,7.556-26.44-0.976-44.297c-17.337-36.281-64.367-68.202-105.046-71.299
								c-20.691-1.575-35.753,4.611-43.278,15.845l0,0c-8.757,13.073-17.514,26.147-26.272,39.22
								c7.521-11.227,22.574-17.41,43.253-15.836c40.655,3.094,87.659,34.997,104.985,71.257
								C1357.09,1843.872,1356.839,1859.448,1349.538,1870.296z"></path>
              </g>
              <g>
                <g>
                  <path fill="#cf9a89" d="M1373.75,1417.577c23.671,1.802,34.682-13.852,24.594-34.964
									c-10.088-21.112-37.455-39.687-61.126-41.489c-23.671-1.802-34.682,13.852-24.594,34.964
									C1322.712,1397.2,1350.079,1415.776,1373.75,1417.577z M1370.55,1410.882c-19.525-1.486-42.099-16.808-50.42-34.222
									c-8.321-17.414,0.761-30.327,20.286-28.84c19.525,1.486,42.099,16.808,50.42,34.222
									C1399.158,1399.456,1390.076,1412.368,1370.55,1410.882L1370.55,1410.882z"></path>
                </g>
                <path fill="#805f54" d="M1398.922,1408.373l9.819-14.624c4.24-6.315,4.382-15.378-0.579-25.76
								c-10.088-21.112-37.455-39.687-61.126-41.489c-12.03-0.916-20.79,2.677-25.172,9.204l-9.82,14.624
								c4.383-6.527,13.143-10.12,25.173-9.204c23.671,1.802,51.038,20.377,61.126,41.489
								C1403.304,1392.995,1403.163,1402.057,1398.922,1408.373z"></path>
                <path fill="#73564c" d="M1374.78,1427.915l16.534-24.625c3.498-5.209,3.615-12.685-0.478-21.249
								c-8.321-17.414-30.895-32.736-50.42-34.222c-9.923-0.755-17.149,2.209-20.764,7.592l-16.534,24.625
								c3.615-5.384,10.841-8.348,20.764-7.592c19.525,1.486,42.099,16.808,50.42,34.222
								C1378.395,1415.23,1378.278,1422.705,1374.78,1427.915z"></path>
                <g>
                  <path fill="#5c5c5c" d="M1355.39,1383.496c7.707,5.485,14.305,12.38,18.431,19.76
									c3.897-5.804,11.689-17.409,15.586-23.213c-4.126-7.38-10.724-14.275-18.431-19.76
									C1367.079,1366.087,1359.287,1377.692,1355.39,1383.496L1355.39,1383.496z"></path>
                </g>
                <g>
                  <path fill="#cf9a89" d="M1338.53,1484.937c29.064,2.212,42.584-17.009,30.197-42.931
									c-12.387-25.922-45.989-48.73-75.053-50.942c-29.064-2.212-42.584,17.009-30.197,42.931
									C1275.864,1459.918,1309.466,1482.725,1338.53,1484.937z M1335.482,1478.557c-25.114-1.911-54.149-21.619-64.852-44.017
									c-10.703-22.399,0.979-39.007,26.093-37.095c25.114,1.911,54.149,21.619,64.852,44.017
									C1372.278,1463.861,1360.595,1480.469,1335.482,1478.557L1335.482,1478.557z"></path>
                </g>
                <path fill="#805f54" d="M1369.429,1473.651c7.625-11.336,15.25-22.671,22.875-34.007
								c5.219-7.759,5.397-18.898-0.701-31.661c-12.393-25.936-46.013-48.755-75.093-50.969
								c-14.788-1.126-25.554,3.295-30.934,11.322l0,0c-7.606,11.348-15.212,22.696-22.818,34.044
								c5.377-8.023,16.138-12.441,30.918-11.316c29.064,2.212,62.667,25.019,75.053,50.942
								C1374.823,1454.763,1374.645,1465.896,1369.429,1473.651z"></path>
                <path fill="#73564c" d="M1123.901,1574.118l-9.279,13.819c-6.793,10.117-7.02,24.635,0.928,41.267
								c16.161,33.821,60.002,63.578,97.923,66.464l9.279-13.819c-37.92-2.886-81.762-32.643-97.923-66.464
								C1116.881,1598.753,1117.107,1584.235,1123.901,1574.118z"></path>
                <path fill="#73564c" d="m1253.798 1680.923 9.279-13.819c-7.02 10.456-21.054 16.212-40.326 14.745l-9.279 13.819C1232.744 1697.135 1246.778 1691.379 1253.798 1680.923zM1280.066 1637.187c27.801-56.874 55.601-113.741 83.402-170.615 3.191-6.528 2.814-15.259-1.893-25.11-10.703-22.399-39.738-42.106-64.852-44.017-11.458-.872-20.12 2.111-25.136 7.74l0 0c-42.139 47.292-84.279 94.582-126.419 141.874 7.364-8.264 20.082-12.644 36.904-11.364 36.871 2.806 79.5 31.74 95.214 64.626C1284.198 1614.784 1284.752 1627.603 1280.066 1637.187z"></path>
                <g>
                  <path fill="#5c5c5c" d="M1240.553,1558.035c14.536,10.345,26.979,23.349,34.761,37.268
									c21.115-39.078,63.34-117.23,84.455-156.308c-5.32-9.516-13.828-18.407-23.766-25.48
									C1312.14,1449.646,1264.417,1521.903,1240.553,1558.035L1240.553,1558.035z"></path>
                </g>
                <g>
                  <defs>
                    <ellipse id="c" cx="1193.489" cy="1620.611" rx="48.413" ry="83.691" transform="rotate(-56.317 1193.427 1620.615)"></ellipse>
                  </defs>
                  <use xlink:href="#c" fill="#3c83c7" overflow="visible"></use>
                  <clipPath id="d">
                    <use xlink:href="#c" overflow="visible"></use>
                  </clipPath>
                  <g clip-path="url(#d)">
                    <polygon fill="#4d4d4d" points="1103.396 1673.5 1146.957 1709.841 1249.67 1587.342 1206.108 1551"></polygon>
                    <polygon fill="#4d4d4d" points="1049.122 1623.719 1092.684 1660.061 1195.397 1537.561 1151.835 1501.219"></polygon>
                  </g>
                </g>
                <g>
                  <path fill="#cf9a89" d="M1215.583,1700.085c40.655,3.094,59.567-23.792,42.24-60.052
									c-17.326-36.26-64.33-68.163-104.985-71.257s-59.567,23.792-42.24,60.052S1174.927,1696.99,1215.583,1700.085z
									 M1213.472,1695.668c-37.92-2.886-81.762-32.643-97.923-66.464c-16.161-33.821,1.478-58.898,39.399-56.012
									c37.92,2.886,81.762,32.643,97.923,66.464C1269.032,1673.477,1251.392,1698.554,1213.472,1695.668L1213.472,1695.668z"></path>
                </g>
                <path fill="#805f54" d="M1258.799,1684.304c8.786-13.054,17.572-26.108,26.358-39.162
								c7.306-10.854,7.557-26.439-0.977-44.297c-17.337-36.281-64.367-68.203-105.046-71.299
								c-20.691-1.575-35.753,4.611-43.278,15.845l0,0c-8.757,13.073-17.514,26.146-26.272,39.22
								c7.521-11.227,22.574-17.41,43.253-15.836c40.655,3.094,87.659,34.997,104.985,71.257
								C1266.351,1657.88,1266.1,1673.456,1258.799,1684.304z"></path>
              </g>
              <g>
                <g>
                  <path fill="#3d3d3d" d="M1412.933,1558.923c-4.64-9.343-16.818-17.431-27.2-18.065
									c-10.382-0.633-15.035,6.428-10.395,15.771c4.64,9.343,16.817,17.43,27.199,18.063
									C1412.92,1575.326,1417.574,1568.266,1412.933,1558.923z"></path>
                </g>
                <path fill="#4d4d4d" d="M1419.285,1549.463c2.335,4.702,2.317,8.825,0.399,11.681l-6.352,9.46
								c1.917-2.856,1.936-6.979-0.399-11.681c-4.64-9.343-16.818-17.431-27.2-18.065c-5.157-0.314-8.901,1.27-10.794,4.089
								l6.352-9.46c1.893-2.819,5.636-4.403,10.794-4.089C1402.467,1532.032,1414.644,1540.12,1419.285,1549.463z"></path>
              </g>
              <g>
                <defs>
                  <path id="e" d="M1381.924,1517.921c12.633,12.318,22.819,25.888,29.453,39.245
									c6.633,13.355,10.289,26.548,8.908,37.991c-0.989,8.199-5.6,32.556-5.6,32.556l-40.167,68.681l2.586-36.927
									c0.804-11.498-2.275-24.636-8.908-37.991c-6.634-13.357-16.82-26.927-29.453-39.245l-35.71-34.592l38.316-69.28
									L1381.924,1517.921z"></path>
                </defs>
                <use xlink:href="#e" fill="#59433b" overflow="visible"></use>
                <clipPath id="f">
                  <use xlink:href="#e" overflow="visible"></use>
                </clipPath>
                <polygon fill="#404040" points="1435.444 1570.396 1365.676 1674.303 1338.439 1619.464 1408.208 1515.558" clip-path="url(#f)"></polygon>
              </g>
              <g>
                <path fill="#8c685c" d="M1338.743,1582.231c12.633,12.318,22.819,25.888,29.453,39.245
								c6.633,13.355,9.712,26.493,8.908,37.991l-2.585,36.919c-5.318-5.037-11.155-9.723-17.342-13.919
								c-7.328-4.969-15.135-9.249-23.103-12.644l1.94-27.703c0.494-7.048-1.424-14.93-5.401-22.937
								c-3.977-8.007-10.014-16.141-17.758-23.691l-8.325-8.117c3.87-9.386,4.686-19.392,1.811-30.598
								c-0.791-3.084-3.308-9.137-3.308-9.137L1338.743,1582.231z"></path>
              </g>
              <g>
                <g>
                  <path fill="#3d3d3d" d="M1362.828,1633.197c-4.64-9.343-16.818-17.431-27.2-18.065
									c-10.382-0.633-15.035,6.428-10.395,15.771c4.641,9.343,16.817,17.429,27.199,18.063S1367.469,1642.541,1362.828,1633.197z"></path>
                </g>
                <path fill="#4d4d4d" d="M1369.18,1623.738c2.335,4.702,2.317,8.825,0.399,11.681l-6.352,9.46
								c1.918-2.856,1.936-6.979-0.399-11.681c-4.641-9.343-16.818-17.431-27.2-18.065c-5.157-0.315-8.901,1.27-10.794,4.089
								l6.352-9.46c1.893-2.819,5.637-4.403,10.794-4.089C1352.362,1606.306,1364.54,1614.395,1369.18,1623.738z"></path>
              </g>
              <g>
                <path fill="#474747" d="M1391.687,1625.873l14.394-21.437c0.408-0.607,0.328-1.707,0.731-2.308l-14.394,21.437
								C1392.014,1624.166,1392.094,1625.266,1391.687,1625.873z"></path>
                <path fill="#4d4d4d" d="M1396.908,1622.673l14.394-21.437c0.545-0.811-0.719-2.831-0.304-3.726
								c0.017-0.036,0.036-0.071,0.059-0.104l-14.394,21.437c-0.022,0.033-0.042,0.068-0.059,0.104
								C1396.189,1619.843,1397.453,1621.862,1396.908,1622.673z"></path>
                <path fill="#595959" d="M1399.384,1617.321l14.394-21.437c0.061-0.09,0.102-0.191,0.119-0.304
								c0.042-0.275-0.064-0.61-0.246-0.975c-0.19-0.382-0.463-0.799-0.736-1.216c-0.272-0.416-0.545-0.833-0.735-1.217
								c-0.138-0.277-0.233-0.538-0.255-0.77c-0.032-0.339,0.097-0.637,0.287-0.919l-14.394,21.437
								c-0.19,0.282-0.319,0.58-0.287,0.919c0.022,0.232,0.118,0.492,0.256,0.77c0.191,0.385,0.463,0.801,0.736,1.217
								c0.273,0.417,0.546,0.834,0.736,1.216c0.182,0.366,0.287,0.7,0.246,0.975
								C1399.486,1617.13,1399.445,1617.23,1399.384,1617.321z"></path>
                <path fill="#595959" d="M1398.572,1610.94l14.394-21.437c0.238-0.354,0.385-0.735,0.245-1.193
								c-0.024-0.079-0.057-0.16-0.098-0.242c-0.587-1.182-2.765-2.597-3.37-3.816c-0.605-1.218,0.259-2.448-0.327-3.628
								l-14.394,21.436c0.586,1.181-0.278,2.411,0.327,3.629c0.605,1.218,2.783,2.634,3.37,3.816
								c0.041,0.082,0.074,0.163,0.098,0.242C1398.957,1610.206,1398.81,1610.586,1398.572,1610.94z"></path>
                <path fill="#4d4d4d" d="M1388.898,1565.221c1.555,0.718,3.477,0.214,4.97,1.102c1.499,0.89,2.226,2.968,3.628,4.005
								c1.396,1.033,3.789,1.26,5.057,2.414c0.326,0.298,0.557,0.642,0.739,1.008c0.191,0.383,0.328,0.792,0.464,1.201
								c0.137,0.408,0.275,0.816,0.465,1.2c0.138,0.277,0.303,0.542,0.516,0.784c1.072,1.218,3.65,2.155,4.532,3.446
								c0.056,0.081,0.103,0.163,0.144,0.245l-14.394,21.436c-0.041-0.082-0.088-0.163-0.144-0.245
								c-0.883-1.291-3.461-2.228-4.532-3.446c-0.213-0.243-0.379-0.507-0.516-0.784c-0.191-0.384-0.328-0.792-0.465-1.2
								c-0.137-0.409-0.274-0.818-0.464-1.201c-0.182-0.366-0.413-0.71-0.739-1.008c-1.268-1.154-3.661-1.381-5.057-2.414
								c-1.402-1.037-2.129-3.115-3.628-4.004c-1.494-0.888-3.415-0.384-4.97-1.102c-1.54-0.711-3.066-2.81-4.63-3.333
								l14.394-21.437C1385.833,1562.41,1387.359,1564.509,1388.898,1565.221z"></path>
                <path fill="#3d3d3d" d="M1381.241,1601.871c-3.074-6.188-6.911-12.423-11.4-18.557
								c0.011,0.004,0.022,0.005,0.034,0.009c1.565,0.523,3.091,2.622,4.63,3.333c1.555,0.718,3.476,0.214,4.97,1.102
								c1.499,0.89,2.226,2.968,3.628,4.004c1.396,1.033,3.789,1.26,5.057,2.414c0.326,0.298,0.557,0.641,0.739,1.008
								c0.19,0.383,0.327,0.792,0.464,1.201c0.137,0.408,0.275,0.816,0.465,1.2c0.138,0.277,0.303,0.542,0.516,0.784
								c1.072,1.218,3.65,2.155,4.532,3.446c0.056,0.081,0.103,0.163,0.144,0.245c0.586,1.18-0.278,2.411,0.327,3.629
								c0.605,1.218,2.783,2.634,3.37,3.815c0.041,0.082,0.074,0.163,0.098,0.242c0.384,1.26-1.396,1.93-1.286,3.091
								c0.022,0.232,0.118,0.492,0.256,0.77c0.191,0.385,0.463,0.801,0.736,1.217c0.273,0.417,0.546,0.834,0.736,1.216
								c0.182,0.365,0.287,0.7,0.246,0.975c-0.164,1.068-2.472,1.009-2.899,1.93c-0.428,0.923,0.929,3.042,0.248,3.798
								c-0.679,0.754-3.237-0.024-4.154,0.543c-0.907,0.562-0.377,2.602-1.504,2.961c-0.438,0.14-1.094,0.003-1.808-0.203
								C1388.08,1618.295,1385.34,1610.125,1381.241,1601.871z"></path>
              </g>
              <g>
                <g>
                  <path fill="#5c5c5c" d="M1472.692,1554.339c4.09,4.274,7.464,8.943,9.769,13.768c1.347,2.82,2.25,5.524,2.735,8.073
									c0.015,0.004,0.031,0.009,0.047,0.013c-0.486-2.552-1.389-5.26-2.738-8.083c-2.309-4.831-5.686-9.505-9.781-13.785
									C1472.713,1554.331,1472.702,1554.335,1472.692,1554.339L1472.692,1554.339z"></path>
                </g>
                <g>
                  <path fill="#5c5c5c" d="M1472.723,1554.326c4.095,4.279,7.473,8.954,9.781,13.785
									c1.349,2.823,2.252,5.531,2.738,8.083c1.555,0.432,4.589,1.275,6.112,1.699c0.529,0.147,1.18-0.061,1.452-0.467
									c2.209-3.29,6.627-9.869,8.835-13.158c0.104-0.155,0.137-0.315,0.11-0.463l-0.244-1.164
									c-0.75-2.807-1.245-4.662-3.011-8.452c-1.911-3.694-2.025-3.915-3.521-6.239c-2.648-3.821-2.698-3.894-4.416-5.98
									c-1.058-1.214-2.47-2.832-3.571-4.007c0.066,0.069,0.024,0.239-0.135,0.476c-2.208,3.289-6.626,9.867-8.835,13.158
									c-0.272,0.405-0.785,0.855-1.144,1.004C1475.84,1553.03,1473.78,1553.887,1472.723,1554.326L1472.723,1554.326z"></path>
                </g>
                <g>
                  <path fill="#5c5c5c" d="M1471.548,1555.344c3.99,4.169,7.281,8.723,9.53,13.43c1.314,2.75,2.194,5.388,2.668,7.875
									c0.272-0.405,0.922-0.616,1.451-0.469c-0.485-2.549-1.388-5.254-2.735-8.073c-2.306-4.825-5.679-9.494-9.769-13.768
									C1472.333,1554.489,1471.82,1554.939,1471.548,1555.344L1471.548,1555.344z"></path>
                </g>
                <g>
                  <path fill="#5c5c5c" d="M1444.627,1608.284c5.839,6.101,10.654,12.766,13.946,19.654
									c1.923,4.024,3.211,7.885,3.904,11.524c0.529,0.147,1.179-0.061,1.452-0.466c-0.705-3.702-2.015-7.629-3.971-11.723
									c-3.348-7.007-8.246-13.786-14.186-19.992C1445.499,1607.685,1444.986,1608.134,1444.627,1608.284L1444.627,1608.284z"></path>
                </g>
                <g>
                  <path fill="#5c5c5c" d="M1467.652,1574.712c5.943,6.21,10.843,12.992,14.193,20.002
									c1.957,4.096,3.268,8.025,3.973,11.728c0.104-0.155,0.138-0.317,0.11-0.466l-0.266-1.283
									c-0.943-3.579-1.512-5.74-3.727-10.514c-2.348-4.539-2.489-4.811-4.326-7.665c-3.256-4.699-3.318-4.788-5.429-7.352
									c-1.301-1.493-3.038-3.483-4.392-4.928C1467.853,1574.304,1467.812,1574.474,1467.652,1574.712L1467.652,1574.712z"></path>
                </g>
                <g>
                  <path fill="#5c5c5c" d="M1440.78,1609.884c5.245,5.48,9.569,11.466,12.526,17.653
									c1.727,3.615,2.884,7.082,3.506,10.351c0.014,0.004,0.028,0.008,0.043,0.012c-0.623-3.271-1.781-6.741-3.509-10.359
									c-2.959-6.192-7.287-12.183-12.536-17.668C1440.799,1609.876,1440.789,1609.88,1440.78,1609.884L1440.78,1609.884z"></path>
                </g>
                <g>
                  <path fill="#5c5c5c" d="M1440.809,1609.872c5.249,5.485,9.578,11.476,12.536,17.668
									c1.729,3.618,2.887,7.089,3.509,10.359c1.431,0.398,4.221,1.173,5.622,1.562c-0.693-3.639-1.981-7.499-3.904-11.524
									c-3.291-6.888-8.107-13.552-13.946-19.654C1443.676,1608.679,1441.781,1609.467,1440.809,1609.872L1440.809,1609.872z"></path>
                </g>
                <g>
                  <path fill="#5c5c5c" d="M1439.585,1610.968c5.144,5.376,9.387,11.248,12.287,17.317
									c1.694,3.546,2.829,6.947,3.439,10.153c0.228-0.453,0.93-0.709,1.5-0.551c-0.622-3.268-1.779-6.736-3.506-10.351
									c-2.956-6.187-7.281-12.173-12.526-17.653C1440.393,1610.045,1439.834,1610.552,1439.585,1610.968L1439.585,1610.968z"></path>
                </g>
                <g>
                  <path fill="#5c5c5c" d="M1445.771,1607.28c5.94,6.206,10.838,12.986,14.186,19.992
									c1.956,4.094,3.266,8.021,3.971,11.723c5.472-8.138,16.417-24.414,21.89-32.552c-0.705-3.703-2.016-7.632-3.973-11.728
									c-3.35-7.01-8.25-13.793-14.193-20.002C1462.182,1582.854,1451.241,1599.138,1445.771,1607.28L1445.771,1607.28z"></path>
                </g>
                <g>
                  <path fill="#5c5c5c" d="M1354.567,1759.598c8.313,8.686,15.168,18.174,19.854,27.981
									c2.738,5.73,4.572,11.226,5.558,16.406c0.104-0.155,0.138-0.316,0.11-0.465l-0.394-1.888
									c-1.278-4.816-2.122-7.998-5.185-14.588c-3.284-6.348-3.481-6.728-6.053-10.724c-4.558-6.578-4.645-6.703-7.602-10.295
									c-1.823-2.091-4.257-4.88-6.154-6.905C1354.769,1759.19,1354.727,1759.36,1354.567,1759.598L1354.567,1759.598z"></path>
                </g>
                <g>
                  <path fill="#5c5c5c" d="M1329.21,1797.331c8.308,8.682,15.16,18.164,19.843,27.965
									c2.736,5.727,4.569,11.22,5.555,16.397c6.34-9.426,19.028-28.282,25.372-37.709c-0.986-5.181-2.82-10.677-5.558-16.406
									c-4.686-9.807-11.541-19.295-19.854-27.981C1348.227,1769.032,1335.547,1787.9,1329.21,1797.331L1329.21,1797.331z"></path>
                </g>
                <g>
                  <path fill="#5c5c5c" d="M1325.099,1799.569c7.749,8.097,14.14,16.942,18.508,26.083
									c2.552,5.341,4.261,10.464,5.181,15.294c0.002,0.001,0.004,0.001,0.006,0.002c-0.92-4.83-2.629-9.953-5.181-15.295
									c-4.369-9.142-10.76-17.987-18.509-26.085C1325.101,1799.568,1325.1,1799.569,1325.099,1799.569L1325.099,1799.569z"></path>
                </g>
                <g>
                  <path fill="#5c5c5c" d="M1325.103,1799.568c7.75,8.098,14.141,16.943,18.509,26.085
									c2.552,5.342,4.262,10.465,5.181,15.295c0.22,0.061,3.281,0.912,4.363,1.212c-0.974-5.115-2.784-10.542-5.487-16.199
									c-4.627-9.682-11.395-19.05-19.603-27.626C1327.332,1798.641,1325.252,1799.505,1325.103,1799.568L1325.103,1799.568z"></path>
                </g>
                <g>
                  <path fill="#5c5c5c" d="M1328.066,1798.335c8.208,8.576,14.976,17.944,19.603,27.626
									c2.703,5.657,4.514,11.084,5.487,16.199c0.529,0.147,1.177-0.062,1.452-0.467c-0.986-5.178-2.818-10.671-5.555-16.397
									c-4.683-9.801-11.535-19.284-19.843-27.965C1328.936,1797.737,1328.425,1798.186,1328.066,1798.335L1328.066,1798.335z"></path>
                </g>
              </g>
              <g>
                <g>
                  <path fill="#5c5c5c" d="M1384.4,1341.09c1.43,1.066,3.333,2.493,4.727,3.607c3.986,3.412,3.986,3.412,5.846,5.245
									c3.48,3.599,3.547,3.668,5.197,5.658c2.896,3.689,3.009,3.833,4.426,5.994c0.606,0.991,1.432,2.301,2.004,3.312
									c-0.07-0.127-0.227-0.206-0.457-0.207c-4.899-8.762-12.732-16.948-21.882-23.46
									C1384.301,1341.191,1384.342,1341.071,1384.4,1341.09L1384.4,1341.09z"></path>
                </g>
                <g>
                  <path fill="#5c5c5c" d="M1384.262,1341.238c9.15,6.512,16.983,14.698,21.882,23.46
									c-0.101-0.001-0.205-0.002-0.31-0.003c-4.861-8.695-12.635-16.818-21.715-23.281
									C1384.168,1341.355,1384.215,1341.296,1384.262,1341.238L1384.262,1341.238z"></path>
                </g>
                <g>
                  <path fill="#5c5c5c" d="M1371.886,1359.032c7.911,5.63,14.683,12.708,18.919,20.283
									c1.396,0.011,4.124,0.033,5.495,0.044c0.476,0.004,1.081-0.322,1.354-0.728c2.215-3.298,6.643-9.893,8.856-13.19
									c0.141-0.21,0.166-0.4,0.091-0.536c-0.596-0.997-1.375-2.336-2.004-3.312c-2.655-3.831-2.705-3.904-4.426-5.994
									c-3.227-3.702-3.289-3.772-5.197-5.658c-3.777-3.552-3.777-3.552-5.846-5.245c-1.406-1.098-3.285-2.556-4.727-3.607
									C1384.362,1341.162,1378.114,1351.324,1371.886,1359.032L1371.886,1359.032z"></path>
                </g>
                <g>
                  <path fill="#5c5c5c" d="M1371.867,1359.056c7.902,5.624,14.666,12.693,18.896,20.259c0.014,0,0.028,0,0.042,0
									c-4.235-7.575-11.008-14.653-18.919-20.283C1371.88,1359.04,1371.873,1359.048,1371.867,1359.056L1371.867,1359.056z"></path>
                </g>
                <g>
                  <path fill="#5c5c5c" d="M1370.976,1360.283c7.708,5.485,14.305,12.38,18.431,19.76
									c0.273-0.406,0.88-0.732,1.356-0.728c-4.23-7.566-10.994-14.635-18.896-20.259
									C1371.648,1359.327,1371.249,1359.877,1370.976,1360.283L1370.976,1360.283z"></path>
                </g>
                <g>
                  <path fill="#5c5c5c" d="M1362.344,1375.035c1.76,1.312,4.102,3.068,5.816,4.438c4.904,4.197,4.904,4.197,7.192,6.452
									c4.28,4.426,4.362,4.511,6.393,6.96c3.56,4.535,3.699,4.712,5.441,7.369c0.745,1.217,1.76,2.828,2.463,4.069
									c-0.07-0.127-0.227-0.206-0.456-0.207c-0.037,0-0.075-0.001-0.114-0.001c-6.028-10.781-15.666-20.854-26.926-28.867
									C1362.208,1375.182,1362.263,1375.008,1362.344,1375.035L1362.344,1375.035z"></path>
                </g>
                <g>
                  <path fill="#5c5c5c" d="M1339.292,1409.307c11.28,8.027,20.935,18.118,26.974,28.919
									c0.475,0.004,1.082-0.324,1.355-0.73c-6.142-10.986-15.964-21.25-27.438-29.416
									C1339.91,1408.486,1339.511,1409.036,1339.292,1409.307L1339.292,1409.307z"></path>
                </g>
                <g>
                  <path fill="#5c5c5c" d="M1336.946,1412.211c10.131,7.21,18.804,16.274,24.227,25.975c0.013,0,0.026,0,0.038,0
									c-5.428-9.709-14.108-18.781-24.248-25.997C1336.958,1412.196,1336.952,1412.204,1336.946,1412.211L1336.946,1412.211z"></path>
                </g>
                <g>
                  <path fill="#5c5c5c" d="M1336.964,1412.189c10.14,7.216,18.82,16.288,24.248,25.997
									c1.284,0.01,3.792,0.03,5.054,0.04c-6.038-10.801-15.694-20.891-26.974-28.919
									C1338.711,1410.026,1337.555,1411.456,1336.964,1412.189L1336.964,1412.189z"></path>
                </g>
                <g>
                  <path fill="#5c5c5c" d="M1362.108,1375.429c11.479,8.169,21.306,18.438,27.451,29.43
									c0.141-0.21,0.166-0.4,0.091-0.536c-0.733-1.225-1.69-2.87-2.463-4.069c-3.263-4.71-3.326-4.8-5.441-7.369
									c-3.969-4.553-4.045-4.64-6.393-6.96c-4.646-4.37-4.646-4.37-7.192-6.452c-1.73-1.351-4.042-3.146-5.816-4.438
									C1362.262,1375.197,1362.262,1375.197,1362.108,1375.429L1362.108,1375.429z"></path>
                </g>
                <g>
                  <path fill="#5c5c5c" d="M1336.004,1413.515c9.938,7.073,18.445,15.964,23.766,25.48
									c0.235-0.437,0.889-0.813,1.404-0.809c-5.424-9.701-14.096-18.764-24.227-25.975
									C1336.709,1412.504,1336.27,1413.112,1336.004,1413.515L1336.004,1413.515z"></path>
                </g>
                <g>
                  <path fill="#5c5c5c" d="M1340.183,1408.08c11.474,8.166,21.295,18.43,27.438,29.416
									c5.485-8.159,16.453-24.476,21.938-32.636c-6.145-10.992-15.972-21.261-27.451-29.43
									C1356.627,1383.593,1345.665,1399.917,1340.183,1408.08L1340.183,1408.08z"></path>
                </g>
                <g>
                  <path fill="#5c5c5c" d="M1242.729,1555.577c16.058,11.428,29.804,25.794,38.401,41.17
									c0.141-0.21,0.166-0.401,0.091-0.536c-1.025-1.714-2.364-4.016-3.446-5.694c-4.569-6.594-4.657-6.72-7.62-10.319
									c-5.668-6.502-5.668-6.502-8.957-9.751c-6.512-6.124-6.512-6.124-10.08-9.043c-2.425-1.893-5.666-4.409-8.153-6.221
									C1242.898,1555.303,1242.805,1555.462,1242.729,1555.577L1242.729,1555.577z"></path>
                </g>
                <g>
                  <path fill="#5c5c5c" d="M1214.622,1596.876c14.97,10.654,27.784,24.045,35.798,38.38c0.001,0,0.003,0,0.005,0
									c-8.015-14.335-20.83-27.728-35.801-38.382C1214.624,1596.875,1214.623,1596.876,1214.622,1596.876L1214.622,1596.876z"></path>
                </g>
                <g>
                  <path fill="#5c5c5c" d="M1214.625,1596.873c14.971,10.654,27.786,24.047,35.801,38.382
									c0.198,0.001,2.95,0.023,3.922,0.031c-8.488-15.182-22.061-29.366-37.916-40.65
									C1215.984,1595.191,1214.716,1596.761,1214.625,1596.873L1214.625,1596.873z"></path>
                </g>
                <g>
                  <path fill="#5c5c5c" d="M1217.322,1593.411c16.049,11.422,29.788,25.78,38.38,41.148
									c6.358-9.453,19.072-28.36,25.428-37.812c-8.597-15.376-22.343-29.741-38.401-41.17
									C1236.378,1565.034,1223.674,1583.952,1217.322,1593.411L1217.322,1593.411z"></path>
                </g>
                <g>
                  <path fill="#5c5c5c" d="M1216.432,1594.637c15.855,11.284,29.428,25.468,37.916,40.65
									c0.475,0.004,1.081-0.322,1.354-0.728c-8.592-15.368-22.33-29.725-38.38-41.148
									C1217.049,1593.818,1216.651,1594.366,1216.432,1594.637L1216.432,1594.637z"></path>
                </g>
              </g>
            </g>
            <g>
              <g>
                <path fill="#fcc29c" d="M1364.279,1397.334c-12.273,2.931-32.511-0.808-36.097,2.262
								c-0.379,1.121,2.639,6.93,25.388,12.741c26.973,6.89,29.371,4.778,32.878,8.313c23.793,14.437-24.957,103.544-59.281,96.263
								c-23.16-4.912-67.034-31.61-76.659-44.176c-6.341-8.278-39.059-22.305-46.508-25.397
								c-29.665-12.315-1.254-78.823,16.654-74.282c16.446,4.038,26.671,3.078,38.958-3.822
								c22.927-12.876,59.677-9.063,65.843-5.689c13.505,7.391,40.246,8.599,50.939,7.169c2.814-0.376,5.516,1.543,5.846,4.37
								C1383.256,1383.807,1379.801,1393.627,1364.279,1397.334z"></path>
              </g>
            </g>
            <g>
              <g>
                <path fill="#fcc29c" d="M1210.561,1449.22c0,0-305.799-54.62-355.983-132.036
								c-13.695-21.126,50.86-65.756,135.233-60.132c31.127,2.075,244.602,121.365,244.602,121.365
								C1248.569,1426.959,1256.437,1443.297,1210.561,1449.22z"></path>
              </g>
              <g>
                <g>
                  <path fill="#f5bc98" d="M1069.099,991.738c13.63-59.639-146.66-114.886-156.634-20.035
									c-9.191,87.403-70.711,307.792-59.134,339.571c11.534,31.659,128.648-22.366,136.479-48.975
									C1008.977,1197.168,1057.387,1042.989,1069.099,991.738z"></path>
                  <path fill="#70a461" d="M886.992,1071.619c12.751,33.092,164.414,50.706,166.055,37.561
									c0,0,52.805-180.39,44.035-218.289c-26.569-114.812-128.145-131.401-156.614-54.044
									C917.659,898.825,886.992,1071.619,886.992,1071.619z"></path>
                </g>
              </g>
            </g>
          </g>
          <path fill="#404040" d="M1037.833,374.733c9.304-45.591,3.908-61.077,58.801-107.599
					c54.894-46.522,207.111-53.007,238.744-47.425c19.824,3.499,14.056,11.391-10.18,28.7
					c-37.696-17.669-103.797-1.193-162.736,43.985c-60.151,46.104-93.267,107.101-84.04,148.057
					C1058.828,433.321,1030.223,412.017,1037.833,374.733z"></path>
        </g>
      </g>
    </g>
  </switch>
</svg>
