<svg xmlns="http://www.w3.org/2000/svg" enable-background="new 0 0 3000 3000" viewBox="0 0 3000 3000" id="man-peeking-through-door">
  <switch>
    <g>
      <g>
        <g>
          <g>
            <g>
              <g>
                <g>
                  <g>
                    <polygon fill="#8c6c40" points="1172.144 2049.512 1214.106 2025.127 1218.596 301.095 1176.634 325.48"></polygon>
                  </g>
                  <path fill="#d4a86e" d="M1140.499,308.643c16.828-1.884,35.169,15.901,36.135,16.837l-4.49,1724.032
									c-0.965-0.936-19.307-18.721-36.135-16.837L1140.499,308.643z"></path>
                  <g>
                    <polygon fill="#ededed" points="1201.553 316.938 1197.063 1900.878 1980.67 2353.293 1985.159 769.353"></polygon>
                  </g>
                  <g>
                    <path fill="#b58b55" d="M1083.232,214.21c-1.537,542.127-3.127,1243.174-4.663,1785.301
										c13.677,7.896,43.764,25.267,57.441,33.164c1.443-509.133,2.94-1177.186,4.49-1724.032
										c277.604,160.275,538.799,311.075,816.403,471.35c-1.55,546.846-3.047,1242.912-4.49,1752.045
										c13.677,7.896,43.764,25.267,57.441,33.163c1.537-542.127,3.127-1271.186,4.663-1813.313
										C1709.559,575.82,1388.19,390.278,1083.232,214.21z"></path>
                  </g>
                  <g>
                    <polygon fill="#8c6c40" points="2045.988 2582.039 2087.95 2557.653 2092.72 706.626 2050.759 731.012"></polygon>
                  </g>
                  <path fill="#f5c78c" d="M1086.653,174.386l964.105,556.626c-0.969,0.556-19.392,11.123-36.242,20.876
									L1083.232,214.21C1093.233,200.503,1086.982,175.691,1086.653,174.386z"></path>
                  <path fill="#d4a86e" d="M2014.517,751.888c16.85-9.753,35.272-20.32,36.242-20.876l-4.77,1851.027
									c-0.965-0.936-19.307-18.721-36.135-16.837L2014.517,751.888z"></path>
                  <g>
                    <polygon fill="#d6a562" points="2050.759 731.012 2092.72 706.626 1128.615 150 1086.653 174.386"></polygon>
                  </g>
                </g>
              </g>
              <g>
                <g>
                  <g>
                    <g>
                      <polygon fill="#b7c5c5" points="1850.891 2177.783 1852.249 1698.44 1589.584 1546.79 1588.225 2026.133"></polygon>
                    </g>
                  </g>
                  <g>
                    <polygon fill="#fff" points="1603 2017.547 1850.939 2160.695 1850.891 2177.783 1588.225 2026.133"></polygon>
                    <polygon fill="#6f7878" points="1589.583 1546.79 1604.31 1555.292 1603 2017.547 1588.225 2026.133"></polygon>
                  </g>
                </g>
                <g>
                  <g>
                    <g>
                      <polygon fill="#b7c5c5" points="1525.233 1989.778 1526.592 1510.434 1263.926 1358.784 1262.567 1838.128"></polygon>
                    </g>
                  </g>
                  <g>
                    <polygon fill="#fff" points="1277.343 1829.542 1525.282 1972.689 1525.233 1989.778 1262.567 1838.128"></polygon>
                    <polygon fill="#6f7878" points="1263.926 1358.784 1278.653 1367.287 1277.343 1829.542 1262.567 1838.128"></polygon>
                  </g>
                </g>
                <g>
                  <polygon fill="#b7c5c5" points="1591.046 1030.767 1853.712 1182.417 1852.464 1622.63 1589.799 1470.98"></polygon>
                  <polygon fill="#fff" points="1604.573 1462.394 1852.512 1605.542 1852.464 1622.63 1589.799 1470.98"></polygon>
                  <polygon fill="#6f7878" points="1591.046 1030.767 1605.773 1039.27 1604.573 1462.394 1589.799 1470.98"></polygon>
                </g>
                <g>
                  <g>
                    <g>
                      <polygon fill="#b7c5c5" points="1853.927 1106.634 1854.724 825.508 1592.058 673.858 1591.261 954.984"></polygon>
                    </g>
                  </g>
                  <g>
                    <polygon fill="#6f7878" points="1592.058 673.858 1606.785 682.361 1606.036 946.398 1591.261 954.984"></polygon>
                    <polygon fill="#fff" points="1606.036 946.398 1853.975 1089.545 1853.927 1106.634 1591.261 954.984"></polygon>
                  </g>
                </g>
                <g>
                  <g>
                    <g>
                      <polygon fill="#b7c5c5" points="1528.269 918.629 1529.066 637.503 1266.401 485.853 1265.604 766.979"></polygon>
                    </g>
                  </g>
                  <g>
                    <polygon fill="#6f7878" points="1266.401 485.853 1281.127 494.355 1280.379 758.393 1265.604 766.979"></polygon>
                    <polygon fill="#fff" points="1280.379 758.393 1528.318 901.54 1528.269 918.629 1265.604 766.979"></polygon>
                  </g>
                </g>
                <g>
                  <polygon fill="#b7c5c5" points="1265.389 842.762 1528.054 994.412 1526.806 1434.625 1264.141 1282.975"></polygon>
                  <polygon fill="#fff" points="1278.916 1274.389 1526.855 1417.536 1526.806 1434.625 1264.141 1282.975"></polygon>
                  <polygon fill="#6f7878" points="1265.389 842.762 1280.115 851.265 1278.916 1274.389 1264.141 1282.975"></polygon>
                </g>
              </g>
              <g>
                <g>
                  <path fill="#d9d9d9" d="M1890.736,1632.604c14.675,8.472,26.522,28.993,26.474,45.855
									c-0.048,16.862-11.972,23.658-26.647,15.185c-14.675-8.472-26.522-28.992-26.474-45.855
									C1864.137,1630.927,1876.061,1624.131,1890.736,1632.604z"></path>
                </g>
                <g>
                  <g>
                    <g>
                      <path fill="#b59600" d="M1885.372,1645.662c-4.866-2.81-9.26-3.068-12.425-1.229l-38.688,22.484
											c3.163-1.839,7.559-1.581,12.423,1.229c9.49,5.479,17.23,18.884,17.198,29.788c-0.015,5.52-1.96,9.392-5.083,11.207
											l38.69-22.484c3.123-1.816,5.067-5.686,5.083-11.207C1902.601,1664.546,1894.862,1651.141,1885.372,1645.662z"></path>
                      <g>
                        <path fill="#c79c00" d="M1846.683,1668.146c9.49,5.479,17.229,18.884,17.198,29.789
												c-0.031,11.069-7.821,15.509-17.311,10.03c-9.634-5.562-17.373-18.967-17.341-30.036
												C1829.26,1667.024,1837.05,1662.584,1846.683,1668.146z"></path>
                      </g>
                    </g>
                  </g>
                  <g>
                    <g>
                      <path fill="#edba00" d="M1844.969,1652.25c-8.755-5.054-16.684-5.526-22.409-2.198l-15.872,9.223
											c5.725-3.326,13.653-2.855,22.408,2.199c17.399,10.045,31.444,34.372,31.388,54.365
											c-0.029,9.931-3.531,16.917-9.183,20.202l15.872-9.224c5.652-3.284,9.156-10.271,9.183-20.202
											C1876.411,1686.624,1862.366,1662.296,1844.969,1652.25z"></path>
                      <g>
                        <ellipse cx="1828.993" cy="1697.659" fill="#cfa200" rx="25.711" ry="44.389" transform="rotate(-30.163 1828.874 1697.49)"></ellipse>
                      </g>
                    </g>
                  </g>
                </g>
              </g>
              <g>
                <path fill="#4d3f31" d="M1901.337,1776.342c0.663-1.054,1.044-2.47,1.049-4.204l0.007-2.516
								c0.007-2.408-0.629-5.129-1.825-7.796c-1.196-2.667-1.836-5.39-1.829-7.798l0.013-4.635c0.01-3.35-2.343-7.424-5.259-9.108
								c-0.489-0.282-0.96-0.472-1.41-0.588c-0.117,0.432-0.186,0.915-0.188,1.457l-0.013,4.635
								c-0.007,2.408-0.66,4.385-1.867,5.664c-1.208,1.279-1.857,3.258-1.864,5.666l-0.007,2.516
								c-0.016,5.689,3.984,12.622,8.939,15.482C1898.621,1776.005,1900.07,1776.395,1901.337,1776.342z"></path>
                <path fill="#6f7878" d="M1901.337,1776.341c-1.267,0.054-2.715-0.336-4.253-1.224
								c-4.954-2.86-8.955-9.793-8.939-15.482c0.002-0.629,0.005-1.887,0.007-2.516c0.007-2.408,0.656-4.387,1.864-5.666
								c1.207-1.279,1.86-3.256,1.867-5.664l0.013-4.635c0.002-0.541,0.071-1.024,0.188-1.457c-0.899-0.233-1.705-0.151-2.344,0.22
								c-0.947,0.55-1.534,1.72-1.539,3.384l-0.013,4.635c-0.007,2.408-0.66,4.385-1.867,5.665
								c-1.207,1.279-1.857,3.258-1.864,5.666c-0.002,0.629-0.005,1.887-0.007,2.516c-0.016,5.689,3.984,12.622,8.939,15.482
								c2.493,1.439,4.75,1.572,6.381,0.625C1900.391,1777.528,1900.919,1777.005,1901.337,1776.341z"></path>
              </g>
            </g>
            <path d="M1595.546,2850c225.649-0.007,438.36-51.048,598.954-143.717l74.505-41.852l-165.045-95.95
						l-37.978,20.765c-125.212,72.257-292.435,112.047-470.867,112.047c-180.255-0.007-349.141-40.48-475.545-113.972
						c-119.608-69.536-185.392-159.606-185.242-253.625c0.151-93.796,65.982-183.399,185.364-252.289l54.968-31.727l-165.041-95.95
						l-18.441,10.64c-167.554,96.69-259.954,227.698-260.183,368.888c-0.226,141.448,92.041,273.068,259.811,370.605
						c162.09,94.235,376.859,146.137,604.69,146.137C1595.525,2850,1595.518,2850,1595.546,2850z" opacity=".1"></path>
            <g>
              <path fill="#5e574a" d="M788.416,2238.206c-0.331,116.719,76.354,233.645,230.064,323.01
							c306.853,178.399,804.475,179.403,1111.47,2.243l-0.207,72.909c-306.994,177.16-804.616,176.156-1111.47-2.243
							c-153.71-89.364-230.395-206.29-230.064-323.01L788.416,2238.206z"></path>
              <g>
                <path fill="#847868" d="M1018.736,1917.419l87.415,50.821c-258.694,149.287-258.791,392.176-0.216,542.506
								c258.576,150.331,677.906,151.177,936.6,1.89l87.415,50.821c-306.995,177.16-804.617,176.156-1111.47-2.243
								S711.742,2094.579,1018.736,1917.419z"></path>
              </g>
              <path fill="#6b6254" d="M912.258,2171.348c-0.279,98.355,64.34,196.885,193.868,272.189
							c258.576,150.331,677.906,151.177,936.6,1.89l-0.191,67.21c-258.695,149.287-678.025,148.441-936.6-1.89
							c-129.527-75.305-194.146-173.834-193.868-272.189L912.258,2171.348z"></path>
              <g>
                <path fill="#8e8370" d="M1106.342,1901.031l90.275,52.484c-208.814,120.502-208.892,316.558-0.174,437.902
								c208.718,121.345,547.194,122.028,756.008,1.526l90.275,52.484c-258.694,149.287-678.024,148.441-936.6-1.89
								C847.551,2293.207,847.647,2050.318,1106.342,1901.031z"></path>
              </g>
              <path fill="#7d7063" d="M1040.127,2111.384c-0.225,79.391,51.935,158.922,156.487,219.707
							c208.718,121.345,547.194,122.028,756.008,1.526l-0.171,60.328c-208.814,120.502-547.291,119.819-756.008-1.526
							c-104.552-60.785-156.712-140.316-156.487-219.707L1040.127,2111.384z"></path>
              <g>
                <path fill="#a39581" d="M1196.788,1893.188l377.917,219.714l377.917,219.714
								c-208.814,120.502-547.29,119.819-756.008-1.526S987.974,2013.69,1196.788,1893.188z"></path>
              </g>
            </g>
          </g>
          <g>
            <g>
              <path fill="#666" d="M1529.609,945.466c-0.182-14.88,10.077-21.144,22.915-13.99
							c12.838,7.154,23.393,25.016,23.575,39.897c0.182,14.88-10.077,21.144-22.915,13.99
							C1540.346,978.209,1529.791,960.347,1529.609,945.466z"></path>
            </g>
            <g>
              <path fill="#3c83c7" d="M1536.089,949.077c-0.131-10.732,7.268-15.25,16.528-10.09
							c9.259,5.16,16.872,18.043,17.003,28.775c0.132,10.732-7.268,15.25-16.527,10.09
							C1543.833,972.693,1536.22,959.81,1536.089,949.077z"></path>
            </g>
          </g>
          <path fill="#e6e6e6" d="M1722.964,2195.033c0,0,16.19-936.348-2.698-1028.094
					c-18.889-91.746-26.984-361.587-210.476-396.666c-183.492-35.079-102.54,1246.665-102.54,1246.665L1722.964,2195.033z"></path>
          <path d="M1413.923,2026.082c-159.953,1.273-289.388,79.106-298.131,185.44
					c-9.565,116.335,128.931,222.671,309.338,237.508c180.407,14.838,334.41-67.442,343.975-183.777
					c0.972-11.818,0.34-23.523-1.633-35.049L1413.923,2026.082z" opacity=".1"></path>
          <g>
            <g>
              <g>
                <path fill="#75b4e7" d="M1210.82,1440.017c14.188-38.18,107.633-262.18,118.529-297.046
								c6.284-20.107-10.626-38.032-34.45-54.925c-31.419-22.278-56.469-8.179-66.521,20.136c0,0-103.665,236.927-114.688,286.592
								C1109.115,1415.381,1200.9,1466.711,1210.82,1440.017z"></path>
              </g>
            </g>
            <g>
              <g>
                <g>
                  <g>
                    <g>
                      <path fill="#594432" d="M1273.937,2213.284c1.034,2.04,1.641,8.753,2.188,11.926
											c-25.257,20.351-56.638,35.944-81.19,29.112c-21.283-5.923-24.474-23.902-20.624-41.256L1273.937,2213.284z"></path>
                      <path fill="#594432" d="M1193.589,2250.116c30.842,8.582,79.712-31.612,103.053-52.708
											c22.58-20.409,44.424-28.554,56.865-44.615c10.431-13.466,11.716-29.278,7.948-46.344
											c-9.94-45.022-54.733-6.364-111.405,34.698c-36.399,26.373-60.346,28.651-71.697,50.399
											C1168.919,2209.619,1165.611,2242.331,1193.589,2250.116z"></path>
                      <path fill="#211913" d="M1193.426,2239.928c30.842,8.582,75.187-27.262,99.614-47.902
											c23.248-19.645,46.684-31.901,59.125-47.962c10.431-13.466,12.541-26.022,8.773-43.088
											c-9.94-45.023-56.549-8.477-113.222,32.585c-36.399,26.373-60.346,28.651-71.697,50.399
											C1166.585,2202.033,1165.448,2232.143,1193.426,2239.928z"></path>
                    </g>
                    <path fill="#1e473e" d="M1273.47,2165.197c-11.795,63.449-93.972,77.207-104.182,30.244
										c-0.898-4.13,0.095-601.672,0.095-601.672l145.932,44.657C1315.315,1638.427,1277.461,2143.728,1273.47,2165.197z"></path>
                    <g>
                      <path fill="#f7cdb3" d="M1364.612,1056.931c-14.853,51.024,60.62,109.6,87.59,80.041l31.69-131.688l-99.353-25.837
											L1364.612,1056.931z"></path>
                      <path fill="#f7cdb3" d="M1362.247,938.24c-0.953,30.816,11.236,70.726,27.496,89.422
											c26.323,30.267,107.242,57.102,129.926,36.257c26.591-24.433,26.531-90.052,26.553-135.699
											c0.034-68.953-34.409-126.124-110.817-119.671C1384.561,812.842,1364.377,869.32,1362.247,938.24z"></path>
                      <path fill="#634029" d="M1339.464,844.106c-4.265,4.4-8.142,10.143-8.231,16.481
											c-1.188-11.544,6.569-22.649,14.531-29.037c3.288-13.324,15.869-32.224,33.69-35.213
											c-9.203,2.674-15.652,11.516-19.643,19.36c5.984-5.005,12.705-8.854,20.015-11.351
											c40.789-13.93,88.165-7.573,123.665,9.797c3.784,0.494,7.659,1.641,11.553,3.219c1.63,0.47,3.251,0.946,4.846,1.422
											l22.783,6.516c-4.308,0.193-8.378,0.127-12.245-0.113c1.744,1.016,3.472,2.044,5.167,3.06l20.461,11.953
											c-5.538-1.154-10.539-2.649-15.183-4.302c4.369,3.455,8.602,7.342,12.637,11.098l17.531,15.942
											c-9.085-3.998-16.428-8.657-22.81-13.292c5.8,5.417,10.357,13.659,14.471,21.321l9.191,16.65
											c-6.678-4.802-11.556-9.875-15.472-14.852c0.548,3.718,8.099,21.435-2.126,38.665l-14.239,12.782
											c3.44-7.879,3.476-16.801,0.029-22.667c-2.642,10.286-19.76,15.696-20.91,17.654
											c-3.035,5.166-12.618,39.046-17.546,48.211c-4.943,1.44-6.237,1.541-11.341,2.061c-1.948,0.198,1.082-35.992-5.07-44.032
											c-4.152-5.426-10.69-8.581-19.03-3.859c-6.276,3.554-7.352,14.292-7.296,25.887c0.108,22.47-15.631,54.625-30.089,61.667
											c-25.484,12.413-47.268,8.956-55.722,16.498C1349.236,1014.351,1323.372,883.132,1339.464,844.106z"></path>
                    </g>
                    <g>
                      <path fill="#594432" d="M1560.612,2330.827c-8.574,7.706-76.826,31.553-96.176-1.147
											c-2.898-4.897-1.823-20.837-1.823-20.837l100.32,4.435L1560.612,2330.827z"></path>
                      <path fill="#594432" d="M1470.263,2323.113c19.208,23.66,50.026,8.546,97.866-0.515
											c54.407-10.305,78.594-7.055,111.588-35.778c21.248-18.498,35.488-60.041,15.126-59.998
											c-43.456,0.091-53.265,14.844-120.168,30.816c-43.721,10.438-70.719-2.84-92.429,8.584
											C1465.289,2275.145,1454.457,2303.644,1470.263,2323.113z"></path>
                      <path fill="#211913" d="M1474.737,2324.195c28.216,15.123,53.461,1.694,98.411-9.279
											c54.359-13.269,66.25-10.708,102.459-35.256c24.941-16.908,44.587-57.391,17.106-58.283
											c-43.433-1.411-51.859,4.088-118.762,20.06c-43.721,10.438-81.958,6.74-99.247,24.146
											C1460.338,2280.046,1454.601,2313.404,1474.737,2324.195z"></path>
                    </g>
                    <path fill="#285e51" d="M1575.177,2257.64c1.307,49.026-83.011,76.897-110.998,37.828
										c-4.237-5.915-50.891-330.522-50.891-330.522l-158.872-335.048l159.66-58.625c0,0,121.333,305.016,131.66,356.652
										C1555.071,1974.606,1574.908,2247.565,1575.177,2257.64z"></path>
                    <path fill="#8ac8eb" d="M1278.586,1072.122c-75.818,34.159-77.397,214.68-89.047,375.26
										c-7.685,105.926-21.982,123.95-23.029,136.173c0.967,17.338,3.497,27.448,47.8,40.625
										c97.932,29.129,177.515,6.059,203.309-22.086c1.614-24.219-20.873-27.981-7.971-105.482
										c13.945-83.774,56.858-153.77,56.858-153.77c10.577-55.291,54.873-120.962,12.262-157.747
										c-11.692-10.093-18.244-28.197-35.555-43.141c-25.803-22.275-34.953-34.979-52.38-50.023
										C1356.158,1061.997,1306.813,1059.404,1278.586,1072.122z"></path>
                    <path fill="#badef3" d="M1354.125,1046.153c29.789,1.338,83.678,53.511,102.849,76.35
										c15.513,18.482,46.193,67.569,38.936,95.191c-11.915-22.936-74.131-84.745-93.693-93.007
										c-38.428-16.231-59.119-40.976-67.003-52.727c-1.947-2.902-2.27-6.42,1.006-7.635
										C1340.629,1062.69,1348.772,1045.912,1354.125,1046.153z"></path>
                  </g>
                </g>
                <g>
                  <path fill="#badef3" d="M1466.278,1476.785c-16.678-55.67-56.905-178.047-53.448-201.579
									c5.702-38.822,53.172-89.571,80.903-49.744c25.437,36.532,60.127,180.344,56.75,259.537
									C1546.817,1570.97,1479.936,1522.372,1466.278,1476.785z"></path>
                </g>
                <g>
                  <path fill="#75b4e7" d="M1564.232,1293.583c6.635-14.868,18.65-65.118,23.612-75.599
									c14.118-15.08,72.353,4.076,66.692,22.496c-2.944,9.332-24.616,65.705-33.522,95.216L1564.232,1293.583z"></path>
                  <g>
                    <path fill="#dbb69d" d="M1662.736,1117.974c11.985,9.508,12.917,35.042,4.345,70.068
										c-3.941,16.103-8.294,39.911-19.357,42.867c-10.48,2.8-14.493,29.36-14.493,29.36
										c-16.119,2.405-31.108-4.072-45.726-14.032c0,0,9.537-26.123,5.98-40.948c-3.167-13.201,23.719-79.175,31.228-81.884
										C1638.567,1118.408,1658.033,1114.243,1662.736,1117.974z"></path>
                    <path fill="#dbb69d" d="M1587.955,1150.493c-0.228-1.652,0.889-3.244,2.545-3.446
										c5.107-0.622,12.247,2.873,12.714,12.233c0.412,8.254,0.611,23.663,11.166,28.929l-19.403,28.798
										c0,0-2.362-19.978-4.33-24.369C1586.95,1184.392,1588.822,1156.769,1587.955,1150.493z"></path>
                  </g>
                  <path fill="#9dd0ee" d="M1654.536,1240.479c-15.158,67.893-82.524,275.232-105.805,282.839
									c-38.771,12.668-60.384-25.944-49.287-62.556c15.955-52.64,65.754-194.942,88.4-242.78
									C1582.171,1238.539,1640.233,1258.007,1654.536,1240.479z"></path>
                </g>
              </g>
            </g>
          </g>
        </g>
      </g>
    </g>
  </switch>
</svg>
