<svg xmlns="http://www.w3.org/2000/svg" enable-background="new 0 0 3000 3000" viewBox="0 0 3000 3000" id="muslim-person">
  <switch>
    <g>
      <g>
        <g>
          <g>
            <g>
              <g>
                <path fill="#c9c9c9" d="M1480.278,1141.034c30.784-84.376,122.138-351.308,105.098-410.879
								c-9.106-31.836-121.088-83.081-137.497-28.408c-31.809,105.982-48.479,313.785-52.026,370.743
								C1393.04,1117.66,1465.271,1182.167,1480.278,1141.034z"></path>
              </g>
            </g>
            <path fill="#dbdbdb" d="M1208.566,1050.631c15.65,11.747,41.282,20.708,67.198,35.636l37.966-103.185
						c-7.56-2.777-44.232-28.286-50.982-30.344C1250.852,951.438,1182.675,1007.38,1208.566,1050.631z"></path>
            <path fill="#c99c74" d="M1210.831,940.082l180.951,96.925l-51.576,81.385l-129.988-92.442
						c-10.245-8.739-30.677-35.407-39.643-52.416L1210.831,940.082z"></path>
            <path fill="#dedede" d="M1207.274,1049.086c55.773,41.864,175.641,103.315,188.222,106.074
						c36.685,8.046,75.531,3.863,97.877-27.726c25.596-36.183-4.677-56.278-44.712-75.294
						c-76.116-36.155-111.075-52.995-153.173-70.674C1301.451,1050.844,1244.123,1075.652,1207.274,1049.086z"></path>
            <path fill="#fff" d="M1250.515,1087.815c62.079-16.378,66.943-56.628,63.215-104.733
						c-10.013-7.249-32.593-27.377-50.982-30.344c20.844,51.77-36.098,113.533-54.622,97.206
						C1206.031,1063.17,1229.124,1081.08,1250.515,1087.815z"></path>
          </g>
          <ellipse cx="1557.396" cy="2582.288" opacity=".07" rx="263.026" ry="454.103" transform="rotate(-82.288 1557.278 2582.156)"></ellipse>
          <g>
            <g>
              <g>
                <g>
                  <polygon fill="#636363" points="1467.054 2475.34 1446.872 2466.471 1454.511 2454.862 1473.52 2459.906"></polygon>
                  <path fill="#2e2b31" d="M1466.873,2475.397c0,0,66.484-37.777,76.746-58.678c2.412-4.913-2.012-36.709-2.012-36.709
									l-82.027,66.912L1466.873,2475.397z"></path>
                  <path fill="#2e2b31" d="M1233.259,2511.142c-2.057-24.888,43.129-42.572,90.389-73.998
									c27.857-18.524,46.818-51.036,75.52-66.544c77.395-41.818,109.068-81.852,132.953-36.927
									c23.885,44.925,12.253,79.931-65.142,121.749c-34.89,18.852-63.41,60.662-107.485,80.068
									C1312.281,2556.276,1235.529,2538.609,1233.259,2511.142z"></path>
                  <path fill="#3c3a3f" d="M1231.973,2505.167c-11.722-20.87,38.524-44.667,91.392-78.332
									c26.599-16.938,67.832-54.714,78.421-79.568c34.481-80.93,105.165-64.496,129.05-19.572
									c23.885,44.925,11.236,77.573-66.158,119.391c-34.89,18.852-70.281,64.372-115.117,81.908
									C1307.751,2545.347,1245.834,2529.845,1231.973,2505.167z"></path>
                </g>
                <g>
                  <path fill="#fff" d="M1528.881,2324.271c0,0-41.203,65.253-61.63,47.905
									c-33.109-28.121-62.001-25.491-68.651-16.023c0.902-13.413,0.678-24.377,1.278-34.941
									c28.476-21.733,87.306-21.783,123.381-15.917L1528.881,2324.271z"></path>
                </g>
              </g>
              <g>
                <g>
                  <path fill="#5a606c" d="M1670.126,1457.338c-60.701,180.64-139.04,345.965-177.513,430.125
									c-22.039,48.211-138.388,35.485-155.643-14.489c-12.173-35.256,54.295-292.374,112.468-487.423L1670.126,1457.338z"></path>
                </g>
                <g>
                  <path fill="#5a606c" d="M1394.862,2345.042c-32.241-187.714-64.35-444.575-56.761-493.911
									c7.811-50.774,139.161-2.858,156.455,45.163c38.615,107.231-12.037,156.914,33.214,421.741
									C1522.255,2343.77,1438.915,2357.335,1394.862,2345.042z"></path>
                </g>
              </g>
            </g>
            <g>
              <g>
                <g>
                  <path fill="#2e2b31" d="M1612.346,2705.585c9.565,20.378,94.712,26.492,135.524-17.607
									c15.508-16.757,12.456-43.766,22.18-73.727c18.564-57.199,44.442-46.443,41.646-76.309
									c-10.302-110.047-122.011-54.919-122.011-54.919s-15.786,63.155-41.567,124.381
									C1626.913,2657.76,1599.61,2678.45,1612.346,2705.585z"></path>
                  <path fill="#3c3a3f" d="M1615.597,2703.013c26.184,13.886,97.28,7.506,131.485-29.456
									c15.508-16.757,12.456-43.766,22.18-73.727c18.564-57.199,44.442-46.443,41.646-76.309
									c-10.302-110.046-122.011-54.918-122.011-54.918s-15.786,63.155-41.567,124.381
									C1626.125,2643.34,1590.933,2689.934,1615.597,2703.013z"></path>
                </g>
                <path fill="#fff" d="M1804.053,2473.275c0.264,5.806,0.577,13.926,0.941,19.991
								c-7.131,15.656-16.253,24.938-28.404,29.886c-34.402,14.01-73.273-33.127-96.871-23.171
								c-0.075-6.111,2.519-19.366,2.408-25.392L1804.053,2473.275z"></path>
              </g>
              <path fill="#6a6f7f" d="M1597.05,1448.986l228.669-5.388c47.093,79.974-12.635,486.566-10.165,607.292
							c18.7,185.536-17.217,237.001-8.259,426.391c-20.856,30.93-88.506,26.048-128.209,6.279
							c-3.094-160.956-10.798-290.678-23.028-431.137C1643.379,1906.812,1611.583,1540.197,1597.05,1448.986z"></path>
            </g>
          </g>
          <g>
            <path fill="#b7b5ba" d="M1759.192,671.171l-200.936,0v-35.485c68.165-34.189,134.167-44.899,200.038-12.964
						C1764.928,639.729,1767.381,665.735,1759.192,671.171z"></path>
            <path fill="#c99c74" d="M1813.599,1305.313l19.927-557.057c-23.568-19.191-18.131-69.007-45.9-80.324
						c-69.093-28.159-160.789-36.251-232.747-32.973c-23.463,1.068-47.387,51.35-70.52,67.398l11.902,598.705L1813.599,1305.313z"></path>
            <path fill="#ededed" d="M1459.075,1340.265c12.278-42.474,32.316-48.283,33.729-99.13
						c2.17-78.047-32.168-167.307-35.57-241.3c-4.156-90.396-29.072-171.341-21.711-219.914
						c4.536-29.939,25.847-121.843,116.359-137.299c-4.487,5.755-8.119,12.902-10.877,21.419
						c-21.345,65.944,17.731,201.489,38.928,224.824l6.22,6.847l5.125-7.7c11.123-16.71,61.929-68.716,106.754-114.598
						c60.076-61.495,83.756-86.504,92.058-98.265c30.098,11.05,83.425,37.431,100.191,49.851
						c53.564,39.675,42.247,124.476,36.164,194.999c-6.188,71.71-29.714,138.04-51.186,196.299
						c-10.5,28.488-21.841,56.62-27.565,77.901c-20.336,75.645-40.646,129.362-51.079,195.392
						C1779.261,1499.428,1434.95,1423.72,1459.075,1340.265z"></path>
            <path fill="#7c573e" d="M1894.574,719.204c-19.358-14.339-79.314-43.368-107.719-52.836
						c-1.71,13.253-195.894,294.146-219.095,328.997l-35.387,381.585c0,0,29.544,132.95,49.167,145.378
						c72.136,45.686,272.363-3.532,258.144-78.366c-13.309-70.045-8.48-163.643,13.829-246.62
						c17.707-65.857,80.856-172.169,90.058-278.792C1949.696,847.601,1951.798,761.592,1894.574,719.204z"></path>
            <path fill="#7c573e" d="M1531.773,708.785c5.677-42.448,25.749-70.948,47.826-75.591
						c-103.702-0.302-141.882,84.096-151.208,145.646c-13.726,90.594,67.19,350.225,49.432,462.294
						c-7.292,46.019-26.86,126.624-46.097,157.883c2.674,53.334,22.546,110.323,52.558,81.328
						c33.84-32.694,50.495-105.8,50.495-105.8l32.982-379.18C1549.728,975.514,1518.316,809.401,1531.773,708.785z"></path>
            <path fill="#e3e3e3" d="M1546.788,645.66c0,0,15.868-16.599,28.074-21.939c22.277-9.746,68.385-15.662,68.385-15.662
						l0.78,35.463L1546.788,645.66z"></path>
            <path fill="#a88063" d="M1589.782,454.605l-20.77,171.878c0,0,0.955,69.753,53.832,77.639
						c54.904,8.188,133.878-31.14,135.131-46.384c-44.89-19.239-16.752-198.131-16.752-198.131L1589.782,454.605z"></path>
            <path fill="#fff" d="M1542.108,721.871c-7.143-17.937-61.461,4.292-66.41,6.543
						c-4.307-43.066,60.492-91.249,75.878-98.924c16.637-8.299,36.302-5.263,36.302-5.263
						C1559.173,636.148,1546.435,666.027,1542.108,721.871z"></path>
            <path fill="#c99c74" d="M1804.167,427.007c-3.519,61.516-22.468,135.611-60.811,163.161
						c-40.151,28.849-70.493,68.838-119.62,70.861c-55.597,2.29-102.212-86.651-101.944-192.248
						c0.05-19.675-1.729-57.119-2.113-77.372c-0.307-16.189-13.229-31.492,4.315-72.488c23.054-53.875,86.245-82.167,157.373-78.099
						C1803.777,247.823,1811.204,303.975,1804.167,427.007z"></path>
            <path fill="#2e2b31" d="M1551.723,612.416c6.8,31.146,26,44.015,54.269,50.498
						c67.649,15.514,121.956-45.892,148.178-80.741c14.87-19.762,2.699-111.742,2.699-111.742l-21.311,6.015
						c0,0,6.042,69.85-5.683,90.988c-16.086,29.001-83.127,93.551-130.091,66.021c-9.74-5.709-19.93-18.58-27.772-22.843
						C1561.642,604.976,1555.217,610.612,1551.723,612.416z"></path>
            <path fill="#2e2b31" d="M1681.878,231.892c-67.854-4.576-148.631,26.63-164.563,97.864
						c-2.746,12.278-20.526,36.303-2.061,40.422c9.11-20.384,55.922,23.225,100.976,20.409
						c43.343-2.709,54.644,3.837,105.428,43.336c10.434,8.115,13.589,37.735,13.86,45.277c4.958,1.785,11.305,3.966,19.015,7.666
						c4.825-19.655-2.045-49.817,15.663-49.673c18.348,0.149,19.81,26.435,15.812,49.077c-2.707,15.328-9.625,52.238-9.164,58.655
						c13.611,6.202,24.27-63.89,31.761-97.214C1834.721,331.53,1803.844,240.118,1681.878,231.892z"></path>
            <path fill="#fff" d="M1791.303,754.779c-10.52-14.728-65.428-24.992-84.37-18.193
						c42.259-43.793,54.494-99.26,38.248-119.781c18.205,5.803,50.066,49.193,50.762,62.414
						C1797.269,704.406,1791.303,754.779,1791.303,754.779z"></path>
            <path fill="#fff" d="M1745.875,731.701c-57.801,50.289-112.847,116.213-160.563,163.998
						c38.409-47.23,72.972-112.52,122.477-159.478C1714.745,733.003,1735.655,729.597,1745.875,731.701z"></path>
            <path fill="#fff" d="M1516.032,709.98c10.671,79.133,29.472,134.96,70.908,188.649
						c-25.444-53.157-38.668-107.853-45.044-178.721C1537.54,713.602,1525.902,713.361,1516.032,709.98z"></path>
            <path fill="#ab9384" d="M1566.306,1001.012c-0.315,15.362-1.207,30.674-1.794,46.013l-2.736,45.931
						c-1.836,30.619-4.38,61.177-6.927,91.735c-2.761,30.539-5.542,61.076-9.019,91.552l-5.248,45.712
						c-2.079,15.209-3.848,30.444-6.2,45.629c0.308-15.363,1.199-30.675,1.781-46.014l2.733-45.931
						c1.843-30.619,4.384-61.177,6.943-91.734c2.774-30.537,5.55-61.075,9.035-91.551l5.245-45.712
						C1562.193,1031.433,1563.961,1016.197,1566.306,1001.012z"></path>
            <g>
              <g>
                <path fill="#4a3d35" d="M1562.095,1059.861c6.184,3.57,11.184,12.231,11.164,19.381
								c-0.02,7.105-5.053,9.974-11.237,6.404c-6.183-3.57-11.184-12.231-11.164-19.337
								C1550.878,1059.16,1555.912,1056.291,1562.095,1059.861z"></path>
              </g>
              <g>
                <path fill="#a8a8a8" d="M1557.522,1061.07c3.52,1.194,6.286,3.933,8.475,6.865c2.026,3.063,3.635,6.521,3.84,10.214
								C1566.659,1071.627,1562.952,1065.882,1557.522,1061.07z"></path>
              </g>
            </g>
            <g>
              <g>
                <path fill="#4a3d35" d="M1549.083,1178.156c6.184,3.57,11.184,12.232,11.164,19.382
								c-0.02,7.105-5.053,9.974-11.237,6.404c-6.184-3.57-11.184-12.231-11.164-19.337
								C1537.867,1177.455,1542.9,1174.586,1549.083,1178.156z"></path>
              </g>
              <g>
                <path fill="#a8a8a8" d="M1544.509,1179.365c3.52,1.193,6.286,3.933,8.475,6.864c2.026,3.064,3.636,6.521,3.841,10.214
								C1553.647,1189.922,1549.94,1184.177,1544.509,1179.365z"></path>
              </g>
            </g>
            <g>
              <g>
                <path fill="#4a3d35" d="M1539.975,1312.945c6.184,3.57,11.184,12.231,11.164,19.381
								c-0.02,7.105-5.054,9.974-11.237,6.404c-6.184-3.57-11.184-12.231-11.164-19.337
								C1528.758,1312.243,1533.791,1309.374,1539.975,1312.945z"></path>
              </g>
              <g>
                <path fill="#a8a8a8" d="M1535.401,1314.153c3.52,1.194,6.286,3.933,8.475,6.865c2.026,3.063,3.635,6.521,3.841,10.213
								C1544.539,1324.71,1540.832,1318.965,1535.401,1314.153z"></path>
              </g>
            </g>
            <g>
              <g>
                <path fill="#4a3d35" d="M1565.999,1427.45c6.184,3.57,11.184,12.231,11.164,19.381
								c-0.02,7.105-5.054,9.974-11.237,6.404c-6.184-3.57-11.184-12.231-11.164-19.337
								C1554.782,1426.748,1559.815,1423.88,1565.999,1427.45z"></path>
              </g>
              <g>
                <path fill="#a8a8a8" d="M1561.426,1428.659c3.519,1.194,6.286,3.933,8.475,6.865c2.026,3.063,3.635,6.521,3.84,10.213
								C1570.563,1439.215,1566.856,1433.47,1561.426,1428.659z"></path>
              </g>
            </g>
          </g>
          <g>
            <path fill="#2e2b31" d="M1614.084,569.461c-9.336-24.826-37.221-46.718-62.127-46.065
						c-0.957,0.025,2.483,25.454,4.87,25.666c17.558,1.561,41.12,11.393,50.578,33.911
						C1614.529,589.104,1619.425,584.836,1614.084,569.461z"></path>
          </g>
          <g>
            <path fill="#2e2b31" d="M1558.557,610.946c-4.769-12.81-19.458-58.719-1.762-61.763
						c1.685-0.29-3.827-25.748-4.509-25.699c-29.598,2.14-12.776,73.63,0.381,92.266L1558.557,610.946z"></path>
          </g>
          <path fill="#2e2b31" d="M1624.026,643.653l-17.176,4.202c-5.938-31.658,9.051-51.476-4.785-78.176l7.661-4.015
					C1623.283,592.214,1616.341,611.422,1624.026,643.653z"></path>
          <g>
            <g>
              <polygon fill="#c99c74" points="1919.657 1591.898 1980.493 1369.308 1883.605 1356.868 1850.202 1564.036"></polygon>
              <g>
                <path fill="#d9d9d9" d="M1990.888,1421.88c-4.272,15.295-8.376,28.002-11.948,36.454
								c-32.052,52.052-131.352,34.674-142.686,3.912c0.671-12.975,1.143-25.187,1.58-37.024
								C1860.036,1362.052,1965.948,1382.92,1990.888,1421.88z"></path>
              </g>
              <g>
                <path fill="#dedede" d="M1863.228,1459.242c8.755-69.835,5.151-143.11,18.262-221.902
								c7.96-47.84,96.963-70.445,105.139-52.711c16.282,35.316-0.807,232.105-18.068,272.915
								C1941.214,1501.937,1872.877,1485.465,1863.228,1459.242z"></path>
              </g>
              <g>
                <path fill="#fff" d="M1990.888,1421.88c-4.272,15.295-8.376,28.002-11.948,36.454
								c-32.052,52.052-131.352,34.674-142.686,3.912c0.671-12.975,1.143-25.187,1.58-37.024
								C1865.835,1471.482,1969.572,1451.312,1990.888,1421.88z"></path>
              </g>
              <path fill="#c99c74" d="M1807.779,1660.36c8.291-8.077,15.334-25.594,19.468-26.871
							c1.053,0.256,1.65,17.669-5.025,38.146c-7.914,24.28-11.584,32.167-10.572,36.616c-0.52,25.511,58.456,23.422,65.076,21.827
							c24.623-5.931,39.791-41.926,46.465-60.121c7.479-20.39,3.716-47.243-1.273-60.856c-3.287-8.969-1.13-19.755,0.135-27.043
							c5.042-29.023-57.256-61.01-62.536-44.906c-4.951,14.724-10.712,22.179-22.079,28.325
							c-21.208,11.466-36.301,41.816-36.719,48.248c-0.916,14.086-13.109,35.405-19.463,42.993
							c-1.672,1.997-1.515,5.031,0.509,6.671C1788.007,1668.446,1797.293,1670.576,1807.779,1660.36z"></path>
            </g>
            <path fill="#dedede" d="M1882.881,1230.837c-25.079-74.928-79.858-253.921-88.421-376.129
						c-6.648-94.883,146.331-218.879,171.407-20.234c13.859,109.782,32.155,343.041,26.144,377.074
						C1986.27,1244.05,1896.356,1271.096,1882.881,1230.837z"></path>
          </g>
          <g>
            <path fill="#338169" d="M1768.617,176.817c0,0,37.406,97.182,37.056,136.975c-38.393,22.778-191.63,61.266-283.216-2.12
						c13.774-105.149,35.551-135.262,35.551-135.262L1768.617,176.817z"></path>
            <path fill="#2e705a" d="M1557.529,177.938c1.028,19.348,39.535,29.681,106.538,30.381
						c54.715,0.572,105.022-11.033,105.022-30.381c0-9.224-46.602-27.938-105.022-27.938
						C1605.646,150,1557.039,168.727,1557.529,177.938z"></path>
          </g>
          <g>
            <g>
              <g>
                <polygon fill="#dbdbdb" points="1390.875 752.002 1460.288 997.29 1475.837 976.349 1406.424 731.062"></polygon>
              </g>
              <g>
                <path fill="#e6e6e6" d="M1006.871,528.844l148.016,147.492c0.608,0.61,1.319,1.149,2.11,1.608
								c0.796,0.463,1.677,0.849,2.632,1.148l231.245,72.91l15.549-20.94l-228.353-72.001l-146.169-145.648L1006.871,528.844z"></path>
              </g>
            </g>
            <g>
              <path fill="#753c23" d="M991.92,524.027l149.914,142.298l69.413,245.287l-149.914-142.298
							c-0.309-0.293-0.519-0.627-0.622-0.993l-69.413-245.287C991.401,523.4,991.611,523.734,991.92,524.027z"></path>
              <path fill="#a85632" d="M1148.742,673.084l69.414,245.287c-0.563-1.988-0.157-3.902,1.386-5.285
							c1.003-0.899,1.391-2.011,1.12-2.969l-69.413-245.287c0.271,0.957-0.117,2.07-1.12,2.969
							C1148.585,669.182,1148.18,671.096,1148.742,673.084z"></path>
              <path fill="#994f2e" d="M1140.322,675.508l69.414,245.287c0.996,3.52,3.803,6.924,8.267,9.518
							c8.276,4.81,19.112,5.008,26.299,0.845l-69.414-245.287c-7.186,4.163-18.022,3.965-26.298-0.845
							C1144.126,682.431,1141.318,679.027,1140.322,675.508z"></path>
              <g>
                <path fill="#c4643b" d="M993.042,519.831c-2.044,1.738-2.285,3.43-1.122,4.532l149.914,142.298
								c-4.104,5.954-1.525,13.552,6.756,18.364c8.276,4.81,19.112,5.008,26.298,0.845l224.617,75.356
								c1.741,0.585,3.979,0.055,5.36-1.182c1.806-2.215,1.217-4.086-0.77-4.752l-227.157-76.213
								c-1.712-0.573-3.95-0.076-5.359,1.187c-3.371,3.021-11.333,2.754-17.046-0.566c-5.718-3.323-7.776-8.879-4.406-11.9
								c1.409-1.263,1.605-2.947,0.464-4.032L998.976,519.861C997.65,518.603,994.992,518.587,993.042,519.831z"></path>
              </g>
              <path fill="#7f4126" d="M1399.506,760.89c1.741,0.585,3.979,0.054,5.36-1.182c0.958-1.175,1.242-2.254,1.001-3.107
							l69.413,245.288c0.241,0.853-0.042,1.931-1.001,3.107c-1.38,1.237-3.619,1.768-5.36,1.182l-224.617-75.356l-69.414-245.288
							L1399.506,760.89z"></path>
            </g>
          </g>
          <g>
            <path fill="#d3d3d3" d="M1132.312,725.483c8.869,4.897,23.461,17.84,24.907,27.868
						c7.043,48.837,28.103,57.966,49.722,114.778c12.099,31.794,10.721,15.216-5.055,63.314l5.528,14.622
						c0.847,0.915,4.836-2.147,4.106-1.137c-5.18,7.167-5.636,31.639-38.705,20.348c-1.146-0.392-2.513-2.74-2.24-3.92
						c1.204-5.195-53.781-138.78-53.781-138.78C1078.938,822.575,1092.961,703.755,1132.312,725.483z"></path>
            <path fill="#c99c74" d="M1135.97,731.235c8.853,4.926,14.097,14.367,15.544,24.394
						c7.043,48.837,37.578,63.875,53.759,122.469c5.733,20.76-0.768,47.873,7.357,62.258l9.432,10.197
						c0.847,0.915,0.932,2.278,0.202,3.288c-5.18,7.167-15.97,35.678-49.039,24.386c-1.146-0.392-5.586-7.019-6.218-8.052
						c-3.347-5.46-10.472-18.558-10.472-18.558C1090.891,865.887,1091.355,706.41,1135.97,731.235z"></path>
          </g>
        </g>
      </g>
    </g>
  </switch>
</svg>
